<?xml version="1.0" encoding="UTF-8" standalone="no"?>
<!-- Created with Inkscape (http://www.inkscape.org/) -->

<svg
   width="1000px"
   height="1000px"
   viewBox="0 0 1000 1000"
   version="1.1"
   style="background: #9c0510; border-radius: 5%;"
   id="svg1"
   xml:space="preserve"
   inkscape:version="1.4 (e7c3feb, 2024-10-09)"
   sodipodi:docname="logo-cute-color-path.svg"
   xmlns:inkscape="http://www.inkscape.org/namespaces/inkscape"
   xmlns:sodipodi="http://sodipodi.sourceforge.net/DTD/sodipodi-0.dtd"
   xmlns="http://www.w3.org/2000/svg"
   xmlns:svg="http://www.w3.org/2000/svg"><sodipodi:namedview
     id="namedview1"
     pagecolor="#9c0510"
     bordercolor="#000000"
     borderopacity="0.25"
     inkscape:showpageshadow="2"
     inkscape:pageopacity="0.0"
     inkscape:pagecheckerboard="0"
     inkscape:deskcolor="#d1d1d1"
     inkscape:document-units="mm"
     inkscape:zoom="0.12598564"
     inkscape:cx="1099.3316"
     inkscape:cy="1833.5423"
     inkscape:window-width="1920"
     inkscape:window-height="1011"
     inkscape:window-x="0"
     inkscape:window-y="0"
     inkscape:window-maximized="1"
     inkscape:current-layer="layer1" /><defs
     id="defs1" /><g
     inkscape:label="Layer 1"
     inkscape:groupmode="layer"
     id="layer1"><path
       d="m 147.18622,851.09217 q 0,1.33289 0.19041,3.0466 0.19041,1.52329 -0.19041,3.04659 0,-0.38083 -0.19042,0.38082 -0.19041,0.57124 0,0.38083 -0.19041,0.19041 -0.19041,0.38082 0,0.19041 -0.19041,0.38082 l -0.95206,1.14248 -0.57124,0.57123 q -0.19041,0 -0.57123,0.38083 -0.19042,0.38082 -0.38083,0.57123 -0.76165,0.76165 -1.33288,2.09453 -0.57124,1.14248 -1.5233,2.66577 -0.76165,1.71371 -1.52329,3.42742 -0.76165,1.71371 -1.71371,3.42741 -1.33289,3.0466 -2.85618,6.2836 -1.33289,3.04659 -3.42742,6.2836 -1.33288,1.90412 -2.47535,2.66576 -0.19042,0.38083 -0.38083,0.95206 0,0.57124 -0.38082,0.95206 0,0 -0.76165,-0.57123 -0.19041,-0.19041 -0.38082,-0.57124 0,-0.38082 -1.14248,-1.52329 l -0.38082,-0.38083 q -0.57124,-0.95206 -1.14247,-1.71371 -0.38083,-0.95206 -0.76165,-1.7137 l -0.57124,-1.14248 -0.19041,-0.19041 -1.71371,-3.237 q -1.7137,-3.04659 -3.61782,-5.90277 -1.71371,-3.0466 -3.61783,-6.09319 -0.76165,-1.14247 -1.33289,-2.09453 l -1.33288,-1.90412 q -0.57124,-0.57124 -1.14247,-1.14247 v 0.95206 81.87716 q 0.19041,1.5233 0,2.85618 0,1.33288 0,1.90412 v 0.38082 q -0.19041,0.19042 -0.19041,0.38083 -0.38083,0.76165 -0.57124,0.95206 0,0.19041 -0.19041,0.38082 -0.76165,0.95206 -1.90412,1.5233 -0.19041,0.19041 -0.38083,0.38082 -0.19041,0.19041 -0.38082,0.38083 -0.19041,0.38082 -0.57124,0.76164 -0.38082,0.57124 -0.76164,0.95206 -0.76165,0.76165 -1.71371,0.57124 -0.38083,-0.19041 -0.76165,-0.76165 -0.38082,-0.38082 -0.76165,-0.38082 -0.38082,-0.19041 -0.76165,0.19041 -0.38082,0.57124 -0.76164,0.57124 -1.5233,-0.57124 -1.332888,-1.14248 0.380824,-0.57123 -1.332884,0.19042 -0.571236,0.95206 -1.332884,2.47535 -0.761648,1.71371 -2.094532,0.76165 -0.380824,-0.38082 -0.761648,-1.14247 -0.190412,-0.57124 -0.761648,-0.76165 l -0.190412,0.19041 q 0,0.19041 -0.190412,0.19041 0,0.19042 0,0.19042 l -1.142472,0.76164 -0.761648,0.76165 q 0,0.19041 -0.380824,2.28495 -0.380824,2.09453 -0.761648,4.18906 -0.380824,2.09453 -0.380824,2.09453 -0.190412,0.76165 -0.380824,1.71371 0,0.95206 -0.380824,1.71371 -0.190412,0.19041 -0.571236,0.19041 -0.190412,0.19041 -0.190412,0 -0.380824,-2.66577 -0.380824,-5.33154 0,-2.66576 -0.380824,-5.33153 0,-0.95206 -0.571236,-2.09453 -0.380824,-0.38083 -1.332884,-1.5233 -0.761648,-0.95206 -1.332884,-1.5233 h -0.571236 q -0.95206,0 -1.332884,-0.19041 -0.190412,0.38083 -0.571236,0.57124 -0.380824,0.38082 -0.380824,0.57123 l -0.190412,0.19042 q -0.95206,1.14247 -1.90412,2.28494 -0.761648,1.14247 -1.713708,2.66577 -0.380824,0.38082 -0.571236,0.76165 -0.190412,0.19041 -0.380824,0.38082 -0.190412,0.19041 -0.571236,0.57124 -0.380824,0.38082 -0.761648,0.57123 -0.190412,2.09453 -0.190412,6.09319 0,4.18906 -0.190412,8.75895 0,4.56989 -0.190412,8.56854 0,4.18906 -0.190412,6.28359 0,0.19042 -0.380824,-0.19041 -0.380824,-0.38082 -0.380824,-0.57123 -1.142472,-2.09454 -0.95206,-6.09319 0.380824,-3.80824 0.95206,-8.56854 0.571236,-4.56989 0.380824,-8.75895 0,-3.99865 -1.713708,-6.47401 0,-0.38082 -0.380824,-0.57123 -0.190412,-0.19042 -0.190412,-0.19042 -0.761648,-1.52329 -1.523296,-2.85618 -0.761648,-1.33288 -1.523296,-2.66576 0,-0.19042 -0.190412,-0.38083 0,0 0,-0.19041 -0.190412,-0.19041 -0.571236,-0.95206 -0.571236,-0.57124 -1.332884,-0.57124 -0.190412,0 -0.380824,0 0,-0.19041 -0.380824,-0.19041 -1.523296,-0.57123 -2.475356,-1.90412 -0.380824,-0.38082 -0.761648,-1.52329 -0.380824,-1.5233 -0.380824,-2.85618 0,-0.95206 0,-1.5233 0.190412,-0.76165 0.190412,-1.5233 v -81.30592 l -0.761648,-1.5233 q 0,0 -0.380824,0.76165 -0.190412,0.19041 -0.190412,0.57124 -0.190412,0.76164 -0.380824,1.52329 -0.190412,0.76165 -0.571236,1.33289 l -1.142472,2.28494 q -0.380824,0.76165 -0.95206,1.5233 -0.571236,0.76164 -1.332884,1.52329 -0.380824,0.38083 -0.380824,0.38083 -0.380824,0.19041 -0.761648,0.57123 -0.571236,0.76165 -0.571236,0.95206 0,0.19041 -1.523296,1.5233 -0.761648,0 -0.761648,0 -0.380824,0.76165 -0.190412,1.90412 0.190412,1.14247 -0.761648,1.52329 -0.571236,0.19042 -0.571236,-0.76164 0,-1.14248 -0.190412,-1.71371 l -0.571236,-2.66577 q -0.571236,-0.38082 -1.142472,-0.95206 -0.571236,-0.76165 -0.95206,-1.14247 0.190412,0.19041 -0.380824,-0.19041 -0.571236,-0.57124 -0.761648,-0.76165 l -0.380824,-0.38083 q -0.380824,0.19042 -0.571236,0.76165 -0.190412,0.57124 -0.380824,0.95206 -0.190412,0.95206 -0.571236,1.71371 -0.190412,0.76165 -0.190412,1.33288 0,-1.7137 -0.761648,-4.18906 0,0.19041 -0.190412,0.19041 0,0 0,0.19041 -0.190412,0 -0.190412,0.19042 0,0 0,0 -0.190412,0.19041 -0.380824,0.38082 -0.190412,0.19041 -0.761648,1.14247 -0.380824,0.76165 -0.761648,1.14247 0,0 -0.190412,0.19042 0,0 -0.190412,0 0,0 -0.190412,0.19041 0,0 -0.190412,0 -0.190412,1.90412 -0.190412,3.61783 0.190412,1.7137 0.380824,3.61782 -0.380824,-2.47535 -1.713708,-2.28494 -1.142472,0.38082 -1.332884,1.14247 0,-1.71371 0,-3.42741 0.190412,-1.90412 0,-3.61783 -0.571236,-0.38083 -1.142472,-0.95206 -0.571236,-0.76165 -1.142472,-1.33289 l -1.523297,-1.52329 q -1.523296,-1.71371 -1.523296,-1.71371 0,0 -0.380824,-0.38082 -0.380824,-0.38083 -3.237004,-3.42742 0,0.38082 -0.380824,0.38082 -0.190412,0 -0.380824,-0.57123 0,-0.57124 -0.190412,-0.95206 0.190412,0.19041 -0.380824,-0.57124 -0.380824,-0.95206 -0.571236,-1.14247 -1.90412,-1.5233 -1.90412,-3.99865 v -24.56315 q 0,-0.95206 -0.190412,-3.237 0,-2.47536 0.380824,-4.18907 0.190412,-0.38082 0.190412,-0.57123 0,-0.38083 0.190412,-0.57124 0.571236,-1.14247 1.523296,-1.71371 0.190412,0 0.190412,0 0,-0.19041 0.190412,-0.19041 l 0.190412,-0.19041 q 1.142472,-0.57124 2.094532,-0.57124 1.523296,-0.19041 2.85618,0 1.523296,0 2.856181,0 h 99.395066 q 2.09453,0 4.37947,-0.19041 2.28495,-0.19041 4.18907,0.38082 0.57123,0.19042 0.95206,0.57124 0.57123,0.19041 0.76165,0.57124 1.33288,0.95206 1.52329,2.09453 0.19042,1.14247 0.19042,2.47535 0.19041,3.0466 0,6.47401 0,3.23701 0,6.47401 z M 38.651374,890.88828 q 0.380824,1.71371 -0.190412,-0.38082 -0.571236,-2.09453 -0.95206,-5.52195 -0.190412,-3.61783 0.571236,-5.52195 -0.190412,3.04659 -0.190412,5.90277 0.190412,2.85618 0.761648,5.52195 z m 1.523296,-0.19041 q -0.380824,1.14247 -0.190412,0 0.380824,-1.33288 0.761648,-3.80824 0.380824,-2.47536 0.380824,-4.56989 0,2.09453 -0.190412,4.18907 0,2.09453 -0.761648,4.18906 z m 243.91773,58.83731 q 0,0.57124 -0.38082,1.71371 -0.19041,0.57123 -0.76165,1.14247 -0.38082,0.38082 -0.76165,0.76165 -0.38082,0.76165 -0.76165,1.52329 -0.38082,0.95206 -0.76164,1.90412 l -3.0466,5.33154 q -0.76164,1.33288 -1.52329,2.66577 -0.57124,1.33288 -1.5233,2.47535 -0.19041,0.38083 -0.76165,0.95206 -0.57123,0.57124 -0.57123,0.57124 -0.38083,-3.04659 -0.38083,-6.09318 0,-2.85618 -0.38082,-5.71236 -0.19041,-0.19042 -0.38082,-0.19042 -0.19042,0.19042 -0.38083,0.19042 0.19041,0 -0.76165,0.57123 -0.95206,0.76165 -1.33288,0.95206 -0.19041,0.19041 -0.38082,0.57124 -0.19042,0.57123 -0.57124,0.57123 -0.19041,0.19042 -0.38082,-0.19041 -0.19042,-0.38082 -0.38083,-0.57123 -0.57123,-0.95206 -1.33288,-1.71371 -0.57124,-0.76165 -0.95206,-1.5233 -0.38083,1.33289 -0.38083,2.85618 0.19042,1.5233 -0.38082,3.04659 -0.19041,0.38083 -0.38082,-0.38082 -0.19042,-0.76165 -0.38083,-1.14247 l -0.38082,-3.80824 q -0.19041,0.19041 -0.38083,0.38082 0,0.19041 -0.19041,0.57124 -0.38082,0.57123 -1.14247,1.33288 0.19041,0 -0.38082,0.19041 -0.57124,0.19042 -0.57124,0.19042 -0.19041,1.90412 -0.38082,3.80824 0,2.09453 -0.38083,4.18906 0,0.57124 -0.19041,1.33288 -0.19041,0.95206 -0.57124,0.76165 -0.57123,-0.57123 -0.57123,-1.52329 0,-0.95206 -0.19041,-1.71371 -0.19042,-1.14247 -0.38083,-2.28495 0,-1.14247 -0.38082,-2.28494 0,-1.14247 -0.57124,-1.71371 -0.38082,0.19041 -0.95206,0.76165 -0.38082,0.57124 -0.76165,1.14247 -0.38082,0.76165 -0.95206,1.33289 -0.38082,0.76164 -1.14247,1.33288 -0.19041,0.19041 -0.57123,0.19041 0,0 0,0 0,0.19041 -0.19042,0.19041 -0.19041,3.0466 -0.38082,6.09319 0,3.04659 -0.38082,6.28359 -0.19042,1.5233 0,3.42742 0.38082,1.90412 -0.95206,2.85618 -0.76165,0.76165 -0.76165,-1.5233 0.19041,-2.09453 0,-3.237 -0.19041,-3.80824 -0.19041,-7.42607 0,-3.61783 -0.38083,-7.23565 -0.19041,-0.19042 -0.57123,-0.57124 -0.19042,-0.38082 -0.57124,-0.57124 -0.38082,-0.57123 -1.14247,-1.33288 -0.57124,-0.57124 -1.14247,-1.33288 -0.57124,-0.57124 -1.33289,-1.14248 -0.57123,-0.76164 -1.52329,-0.95206 0.57123,0.19042 0,0 -0.57124,-0.19041 -1.33289,-0.57123 h -0.57123 q -0.38083,2.47535 -0.38083,5.14112 0,2.66577 -0.38082,5.33154 -0.19041,0.57123 -0.38083,-0.38083 -0.19041,-0.95206 -0.57123,-1.33288 -0.19041,-1.5233 -0.57124,-1.90412 -0.19041,-0.19041 -0.57123,-0.57124 -0.19042,0.19042 -0.57124,-0.19041 -1.5233,-1.33288 -1.14247,-3.61783 0.57123,-2.28494 0.38082,-4.18906 0,0.76165 -0.19041,1.33288 0,0.76165 -0.38083,1.14248 -0.19041,0.19041 -0.38082,-0.76165 0,-0.76165 -0.19041,-1.33289 -0.38083,-0.76164 -0.38083,-1.33288 -0.19041,0.76165 -0.38082,0.57124 -0.76165,-1.33289 -0.38082,-1.14248 0.38082,0.19042 0.57123,0 0.19041,-0.19041 -1.33288,-2.66576 l -0.57124,-0.57124 q -0.19041,-0.38082 -0.57123,-0.76165 -0.38083,-0.57123 -0.76165,-1.14247 0,-0.38082 -0.38083,-0.76165 -0.38082,-0.76165 -0.76164,-1.52329 -0.19042,-0.76165 -0.57124,-1.5233 -0.57124,-1.5233 -1.33288,-2.85618 -0.57124,-1.5233 -1.14248,-2.85618 -0.95206,-1.90412 -1.90412,-3.99865 -0.95206,-2.28495 -1.90412,-4.56989 -0.38082,-1.14247 -0.76164,-1.5233 -0.76165,-2.28494 -1.90412,-4.37947 -0.19042,-0.38083 -0.38083,-0.76165 -0.19041,-0.57124 -0.38082,-0.95206 l -1.33289,-2.85618 q 0,-0.38083 -0.19041,-0.57124 0,0 -0.19041,0 0,-0.19041 0,-0.38082 -0.19041,-0.38083 -0.38082,-0.95206 -0.19042,-0.57124 -0.57124,-0.95206 -0.19041,-0.57124 -0.38082,-1.14247 -0.19042,-0.57124 -0.57124,-1.14248 l -0.57124,-1.33288 -1.33288,-1.33288 q 0,0.38082 -0.38082,0.76164 -0.38083,0.76165 -0.38083,1.14248 l -0.57123,1.52329 q -0.38083,0.76165 -0.76165,1.14247 -0.57124,0.76165 -1.5233,0.76165 -0.95206,-0.38082 -1.52329,-1.71371 -0.57124,-1.33288 -0.95206,-2.09453 -0.19042,0 -0.19042,0 0,-0.19041 0,-0.19041 -0.76164,-2.09453 -0.76164,-1.14247 0.19041,0.95206 0,1.33288 v 27.99057 q 0,1.90412 0.19041,4.18906 0.19041,2.28495 -0.38083,4.37948 -0.76164,1.52329 -0.76164,1.33288 l -0.38083,0.38083 q -0.19041,0.19041 -0.38082,0.38082 0,0.19041 -0.38083,0.38082 -0.38082,0.19042 -0.95206,0.76165 -0.38082,0.57124 -0.57123,0.76165 -0.38083,0.76165 -0.76165,0.95206 -0.57124,1.14247 -0.76165,0.95206 0,0 -0.19041,0 0,0 0,-0.19041 -0.38082,1.90412 -0.57124,3.80824 -0.19041,2.09453 -0.76164,4.18906 -0.19042,0.38083 -0.38083,0.95206 0,0.57124 -0.38082,0.95206 -0.19041,0.19041 -0.57124,0 -0.19041,-0.19041 -0.19041,-0.38082 -0.19041,-0.38083 -0.38082,-0.95206 -0.19042,-0.57124 -0.38083,-0.95206 -0.19041,-0.76165 -0.38082,-1.5233 -0.19041,-0.57123 -0.38083,-1.33288 -0.19041,-0.57124 -0.38082,-1.33289 0,-0.57123 -0.38082,-1.14247 l -1.14248,1.14247 q -0.19041,0.19042 -0.38082,0.19042 -0.57124,0.57123 -0.95206,0.76164 -0.19041,4.18907 -0.19041,9.13978 0,5.14112 -0.38083,9.5206 0,1.14247 0.19042,3.04659 0.19041,2.09453 0,3.23701 0,1.33288 -0.95206,0.76164 -1.71371,-1.14247 -1.14248,-3.61782 0.57124,-2.47536 0.38083,-4.37948 -0.19041,-4.37948 -0.38083,-8.94936 0,-4.37948 -0.38082,-8.56854 -0.19041,-0.19042 -0.57124,-0.57124 -0.19041,-0.19041 -0.57123,-0.57124 -0.19041,-0.57123 -0.57124,-1.14247 -0.19041,-0.38082 -0.57123,-0.95206 -0.38083,-0.76165 -0.38083,-0.76165 0,0 -0.38082,-0.76164 0,0 -0.38083,-0.76165 -0.38082,0.76165 -0.38082,0.76165 -0.19041,0.19041 -1.14247,0.38082 -0.76165,0.19041 -1.14247,0.19041 -1.71371,0.19041 -2.85618,-0.95206 -0.95206,-0.95206 -2.47536,-1.52329 -1.14247,0.19041 -2.09453,0.76164 -0.76165,0.76165 -1.71371,1.14248 -1.33288,0.38082 -3.237,-0.19042 l -1.33289,-0.57123 h -0.19041 q -0.38082,0.19041 -1.14247,0.57123 -0.57124,0.38083 -1.14247,0.57124 -1.33289,0.38082 -2.85618,-0.57124 -1.5233,-0.95206 -3.23701,-2.09453 -0.76165,-0.38082 -1.33288,-0.76165 -2.09453,-1.52329 -2.09453,-4.18906 V 828.62356 q 0,-1.5233 0,-3.04659 0,-1.71371 0.95206,-3.0466 0.76164,-1.14247 2.09453,-1.7137 1.14247,-0.38083 1.90412,-0.38083 0.95206,-0.19041 1.90412,0 1.14247,0 2.09453,0 h 46.84135 q 3.80824,0 7.61648,0 3.80824,-0.19041 7.42607,0.38083 9.71101,0.76164 17.70832,3.61782 8.18771,2.66577 14.09049,7.04525 1.14247,0.57123 2.09453,1.52329 0,0 0,0.19042 0.19041,0 0.19041,0.19041 0.19041,0 0.38082,0.19041 7.04525,5.90277 10.66308,14.2809 3.80824,8.37813 3.80824,18.85079 0,6.28359 -1.5233,11.99595 -0.38082,3.61783 -1.5233,4.7603 -0.38082,0.76165 -0.38082,0.95206 -0.95206,2.28495 -2.28494,4.37948 -1.14248,2.09453 -2.66577,4.18906 -0.19041,0.19042 -0.38083,0.57124 -0.19041,0.19041 -0.38082,0.38082 -0.19041,0.19042 -0.38082,0.38083 -0.19042,0.19041 -0.38083,0.57123 l -1.52329,1.71371 q -0.19042,0.19041 -0.57124,0.38083 -0.19041,0.19041 -0.38082,0.57123 -0.57124,0.38083 -1.14248,0.95206 -0.38082,0.57124 -0.95206,0.95206 -0.19041,2.66577 0.76165,7.99731 0.95206,5.33153 1.14247,10.47266 0.38083,0.57123 0.76165,1.14247 0.38083,0.57123 0.57124,1.33288 1.90412,3.23701 3.80824,7.99731 l 4.56989,8.37812 q 0.95206,1.90412 1.90412,3.61783 1.14247,1.71371 2.09453,3.42742 0.38082,0.76165 0.76165,1.33288 0.38082,0.57124 0.57123,1.33289 0.19041,0.19041 0.38083,0.76165 0.19041,0.38082 0.19041,0.76164 0.38082,0.76165 0.38082,1.5233 z m -74.07027,-73.49903 h 12.37678 q 0.95206,0 2.47536,-0.38083 1.90412,-0.57123 3.04659,-2.28494 1.33288,-1.71371 2.09453,-3.99865 0.38083,-0.95206 0.57124,-1.90412 0.19041,-1.14248 0.19041,-2.28495 0,-2.09453 -0.76165,-4.18906 -0.76165,-2.09453 -2.47535,-3.42742 -0.76165,-0.76165 -2.09454,-0.76165 -1.33288,-0.19041 -2.47535,0 -2.09453,0.19042 -4.37948,0.57124 -2.09453,0.19041 -4.37947,-0.19041 -1.14248,-0.19041 -2.28495,-0.38083 -0.95206,-0.38082 -1.90412,-0.57123 -0.38082,-0.19041 -0.57123,-0.19041 0,-0.19042 -0.95206,-0.19042 v 16.18502 q 0,3.42742 0.38082,3.23701 0.38082,-0.19041 1.14247,0.76165 z m 53.8866,35.0358 q 0.95206,-7.23565 0.95206,-10.47266 0,0 -0.38082,0.38083 0,0.19041 -0.19042,0.38082 0,0 0,0.19041 0,0.19042 0,0.76165 0,0.57124 -0.38082,1.71371 -0.38082,0.76165 -0.76165,0.95206 -0.57123,0.19041 -0.76165,-0.76165 -0.19041,-0.95206 -0.95206,-0.57123 0,0.57123 -0.76164,0.76164 -0.19042,0.19042 -0.38083,0 0,-0.38082 -0.19041,-0.38082 l 0.57124,1.14247 q 0.38082,0.19041 0.57123,0.76165 0.19041,0.38082 0.38083,0.76165 z m -25.13438,47.60301 q 0.38082,-0.38083 0.57123,-0.95206 0.38083,-0.57124 -0.38082,-1.71371 0,0 -0.19041,0 0,0 0,0.19041 -0.19042,0.38082 -0.19042,0.95206 0.19042,0.76165 0.19042,1.5233 z m 191.74453,-13.13843 q 0.57123,1.14247 0.95206,2.47535 0.57123,1.14248 0.19041,2.47536 -0.19041,0.76165 -0.57124,1.33288 -0.38082,0.38083 -0.76164,0.76165 l -0.57124,0.57124 q -0.19041,0.38082 -0.38082,0.95206 0,0.57123 -0.38083,0.95206 -0.19041,0.57123 -0.38082,1.14247 0,0.57124 -0.38083,1.14247 -0.19041,0.57124 -0.38082,1.5233 0,1.14247 -0.38082,0.76165 -0.57124,-0.57124 -0.57124,-1.5233 0,-0.76165 0,-1.5233 -0.76165,0.95206 -1.71371,1.90412 -0.76165,1.14248 -1.52329,2.09454 -1.33289,2.09453 -2.66577,4.37947 -1.33289,2.47536 -2.47536,4.7603 -0.76165,1.5233 -1.52329,3.23701 -0.76165,1.7137 -1.71371,3.237 -1.14247,1.90412 -1.33289,2.09453 -0.19041,0.19041 -1.33288,1.33289 h -0.19041 q -0.19041,0.19041 -0.76165,0.57123 -0.19041,1.71371 -0.38082,3.42742 0,1.90412 -0.38083,3.61783 -0.19041,0.38082 -0.38082,-0.38083 -0.19041,-0.76165 -0.38083,-1.14247 -0.19041,-1.5233 -0.19041,-3.237 0,-1.5233 -0.38082,-3.0466 -0.57124,-0.57123 -1.14247,-1.7137 0,-0.19042 -0.19042,-0.38083 0,0 0,0 -0.57123,-1.33288 -1.14247,-2.66577 -0.38082,-1.14247 -0.95206,-2.47535 -0.95206,-1.90412 -2.09453,-3.04659 -0.19041,-0.19042 -0.38082,-0.19042 0,0 -0.19042,-0.19041 -0.19041,0.19041 -0.38082,0.38083 -0.19041,0.19041 -0.38082,0.38082 -1.71371,1.14247 -1.5233,1.5233 0.38082,0.38082 1.14247,0.57123 0.95206,0.38083 0.95206,1.14247 0,0.95206 -2.09453,3.0466 -0.57124,0.76164 -0.57124,-1.14248 0,-1.7137 -0.19041,-2.47535 -0.19041,-1.14247 -0.38082,-2.47536 0,-1.14247 -0.38083,-2.28494 -1.14247,-1.14247 -1.7137,-2.66577 -0.57124,-0.95206 -1.14248,-2.09453 -0.38082,-0.95206 -0.76164,-1.90412 l -0.57124,-1.5233 q -0.19041,-0.57123 -0.76165,-1.14247 -0.38082,-0.38082 -0.76165,-0.76165 0,-0.19041 0,0 v 0 q -0.38082,0 -2.47535,1.33289 0,0.19041 0.19041,0 0.19041,-0.19042 2.28494,-1.33289 l -0.19041,-0.19041 -0.38082,-0.38082 q -2.47536,2.47535 -2.09453,2.47535 0.38082,0 1.52329,-0.95206 1.14247,-0.76165 1.33289,-1.14247 0.19041,-0.38082 -2.66577,1.5233 l -0.38083,0.38082 q -0.19041,-0.19041 -0.38082,-0.76165 -0.19041,-0.57123 -0.19041,-0.19041 -0.38083,1.14247 -0.38083,3.237 0,2.28495 -0.38082,1.33289 -0.38083,-0.95206 -0.38083,-3.04659 0,-1.90412 -0.38082,-3.61783 -0.57124,-0.95206 -1.14247,-2.09453 -0.38083,-0.95206 -0.95206,-1.90412 -0.38083,0 -0.38083,-0.38083 -0.38082,-0.38082 -0.95206,-0.95206 -0.38082,-0.57123 -0.19041,-0.38082 -0.19041,-0.38083 -0.38082,-0.76165 -0.19041,-0.38082 -0.38083,-0.57124 -0.76164,-1.90412 -1.33288,-3.80824 -0.57124,-1.90412 -1.33288,-3.80824 -0.19042,-0.38082 -0.19042,-0.57123 0,-0.19042 -0.19041,-0.38083 0,-0.38082 -0.38082,-1.14247 0,-0.38082 -0.19041,-0.57124 0,-0.19041 -0.19042,-0.57123 0,-0.38083 -0.19041,-0.38083 0,-0.38082 -0.38082,-1.14247 0,-0.19041 0,-0.19041 0,0 -0.76165,0 -0.19041,0.38082 -0.19041,1.14247 0,0.76165 -0.76165,1.14247 -0.38082,0.95206 -0.95206,2.09454 -0.57124,0.95206 -1.14247,1.90412 -1.33289,2.47535 -2.66577,5.52195 -1.14247,2.85618 -2.47536,6.09318 -0.76164,2.28494 -1.7137,4.56989 -0.76165,2.28494 -1.71371,4.18906 -0.76165,1.71371 -1.5233,3.42742 -0.76165,1.90412 -1.71371,3.42741 -0.19041,0.38083 -0.76164,0.95206 -0.38083,0.76165 -1.14248,0.76165 -0.76164,0.19041 -1.52329,-0.57123 -0.76165,-1.14248 -1.33289,-2.47536 -0.38082,-1.33288 -0.76164,-2.66577 -0.95206,-2.09453 -1.71371,-4.95071 -0.76165,-2.85618 -1.33289,-5.90277 -0.76164,-3.04659 -1.52329,-5.90277 -0.57124,-2.85618 -1.5233,-4.95072 l -0.57123,-1.52329 q -0.19042,-0.38083 -0.38083,-0.76165 0,-0.38083 -0.19041,-0.95206 -0.38082,-0.76165 -0.57124,-1.33289 -0.19041,-0.19041 -0.38082,-0.38082 -0.19041,-0.38082 -0.19041,0 -0.38083,1.90412 -0.38083,4.18907 0,2.09453 -0.38082,4.18906 -0.19041,0.76165 -0.38082,-0.38082 -0.19042,-1.33289 -0.38083,-1.90412 -1.33288,-2.66577 -0.76165,-3.23701 0.57124,-0.57124 1.14248,-0.95206 0.57123,-0.38082 -0.95206,-2.47536 -0.19042,0 -0.57124,0.76165 -0.19041,0.19041 -0.19041,0.38083 0,0.19041 -0.19041,0.38082 -0.38083,0.57124 -0.76165,1.14247 -0.38083,0.38083 -0.95206,0.76165 -0.38083,0.38083 -0.57124,0.38083 -0.19041,2.09453 -0.38082,4.37947 0,2.09453 -0.38083,4.18907 0,0.19041 -0.38082,0.38082 -0.38082,0.19041 -0.38082,0 -0.38083,-2.28494 -0.38083,-4.56989 0,-2.47535 -0.38082,-4.95071 -0.95206,-0.95206 -1.71371,-2.28495 -0.76165,-1.33288 -1.33288,-2.09453 -1.71371,-3.42741 -1.5233,-3.237 0.19041,0 0.57124,1.14247 0.38082,1.33288 0,1.71371 -0.57124,1.14247 -0.57124,1.33288 -0.19041,0.57124 -0.38082,1.14247 -0.19042,0.38083 -0.38083,0.95206 -0.38082,1.14248 -0.76165,2.28495 -0.38082,1.14247 -0.76164,2.09453 l -1.14248,3.23701 q -0.19041,0.76164 -0.57123,1.52329 -0.38083,0.57124 -0.76165,1.14247 -0.57124,0.95206 -1.5233,1.5233 -0.38082,0.38082 -0.76164,1.14247 l -0.57124,1.33289 q -0.38082,1.52329 -0.95206,3.237 -0.57124,1.71371 -1.14247,3.237 0,0.19042 -0.19041,0.19042 0,0.19041 0,0.19041 -0.19042,1.33288 -0.57124,2.47535 -0.38082,1.33289 -0.76165,2.66577 -0.19041,0.19041 -0.19041,0.57124 0,0.38082 -0.19041,0.76165 -0.57124,2.28494 -1.14247,4.56988 -0.38083,2.47536 -1.14248,4.56989 -0.38082,1.90412 -0.95206,3.61783 -0.57123,1.71371 -1.14247,3.42742 -0.19041,0.76164 -0.76165,1.52329 -0.38082,0.95206 -0.76164,1.90412 l -1.14248,1.5233 q -0.57123,0.57123 -1.52329,0.95206 -0.19041,2.09453 -0.38083,4.18906 0,2.28495 -0.38082,4.37948 -0.19041,0.38082 -0.57124,0.76165 -0.38082,0.38082 -0.38082,0.19041 -0.38082,-2.66577 -0.38082,-5.14113 0,-2.47535 -0.38083,-4.95071 -0.38082,-0.38082 -0.76165,-0.76165 -0.19041,-0.38082 -0.57123,-0.57123 l -1.71371,-1.90412 q -0.19041,-0.38083 -0.57124,-0.76165 -0.19041,-0.38082 -0.57123,-0.76165 -0.76165,-1.14247 -1.71371,-2.28494 -0.76165,-1.14247 -1.33288,-2.28495 -2.09454,-3.61782 -3.61783,-7.42606 -1.5233,-3.61783 -3.23701,-7.23566 -0.76164,-1.5233 -1.52329,-3.237 -0.76165,-1.5233 -1.71371,-3.0466 -0.19041,-0.19041 -0.38082,-0.38082 0,-0.19041 -0.19042,-0.38082 -0.38082,-0.76165 -0.95206,-1.33289 -0.76164,-0.76165 -1.14247,-0.95206 0,0 -0.19041,-0.19041 0,0 0,-0.19041 -0.19041,0 -0.19041,-0.19041 0,0 -0.19041,0 -0.57124,0.95206 -0.76165,2.09453 0,1.14247 -0.57124,2.09453 0,0.76165 -0.57123,0.76165 -0.76165,0.19041 -1.14248,-1.33289 -0.19041,-1.33288 -0.19041,-0.95206 -0.76165,3.99866 -0.57123,1.71371 0.38082,-2.28494 -0.38083,-6.47401 -0.19041,-0.19041 -0.38082,-0.19041 -0.19041,0 -0.38083,-0.19041 -0.57123,-0.19041 -1.52329,-1.14247 -0.38083,-0.38083 -0.76165,-1.14247 -0.38082,-0.76165 -0.19041,-2.28495 0.19041,-1.14247 0.57123,-2.28494 0.38083,-1.14247 0.76165,-2.09453 0.38083,-1.33289 0.76165,-2.28495 0.57124,-1.14247 0.76165,-1.33288 l 6.47401,-18.46997 q 0.95206,-3.80824 1.7137,-7.23565 0.95206,-3.61783 2.09454,-5.90278 0,-0.19041 0,-0.38082 0.19041,-0.19041 0.19041,-0.38082 0.38082,-0.76165 0.57123,-1.5233 0.38083,-0.76165 0.76165,-1.5233 0.38083,-0.76164 0.76165,-1.33288 0.38082,-0.76165 0.57124,-1.14247 l 9.90142,-28.37139 q 0.95206,-3.42742 1.71371,-6.47401 0.95206,-3.237 1.71371,-5.14112 0.57123,-1.90412 0.95206,-3.61783 0.57123,-1.90412 1.14247,-3.42742 0.57123,-2.09453 1.33288,-3.80824 2.09453,-6.28359 3.80824,-7.9973 l 3.42742,-9.90142 2.66577,-7.42607 q 0.57123,-2.09453 2.66576,-4.18907 2.09454,-2.09453 6.2836,-2.09453 h 40.93858 q 2.28494,0 3.80824,0.76165 0.57124,0.19041 1.71371,0.95206 1.33288,0.95206 2.09453,2.28494 0.76165,1.33289 1.33288,2.85618 0,0.38083 0.38083,1.14248 l 0.57124,1.90412 q 0.19041,0.38082 0.19041,0.95206 0.19041,0.57123 0.38082,0.95206 l 1.71371,4.18906 q 0,0.19041 0,0.38082 0.19041,0 0.19041,0.19042 0.38083,0.76164 0.38083,1.33288 0.57123,1.33288 0.95206,2.85618 0.57123,1.5233 0.95206,3.04659 0.19041,0.38083 0.38082,0.95206 0.19041,0.57124 0.38082,0.95206 l 0.38083,1.33289 q 1.14247,1.14247 2.47535,4.56988 1.5233,3.23701 3.0466,7.99731 l 0.57123,1.90412 q 1.33289,3.04659 2.28495,6.28359 1.14247,3.23701 1.90412,6.47401 0.95206,1.90412 1.90412,5.33154 0.95206,3.42741 1.7137,7.23565 l 9.33019,26.46727 q 1.14247,1.90412 2.28495,5.71236 1.33288,3.61783 2.66576,8.18772 0.38083,0.95206 0.57124,1.90412 0.38082,0.95206 0.57124,1.90412 l 4.18906,11.99596 q 0.57124,0.95206 0.76165,2.09453 z m -71.02368,-80.9251 q 0,0.19041 -0.19041,0.57123 -0.19041,0.38083 -0.19041,0.76165 -0.38083,1.33288 -0.95206,2.66577 -0.38083,1.33288 -0.76165,2.85618 l -4.37948,14.85213 q -0.19041,0.76165 -0.38082,1.5233 -0.19041,0.57124 -0.57124,1.5233 -0.19041,1.14247 -0.57123,2.47535 -0.38083,1.14247 -0.76165,2.47536 -0.19041,0.76165 -0.38083,1.52329 -0.19041,0.76165 -0.57123,1.5233 -0.19041,0.19041 -0.19041,0.57124 0,0.19041 -0.19042,0.57123 0,0 0,0.19041 0,0 -0.19041,0 0,0.19042 -0.19041,0.38083 0,0 0,0.19041 h 16.37543 q 0.95206,0 1.90412,0 0.95206,-0.19041 1.71371,0 h 1.5233 l -0.57124,-2.09453 q -0.38082,-0.95206 -0.57124,-1.71371 -0.19041,-0.95206 -0.57123,-1.71371 l -0.57124,-1.71371 q -0.76165,-2.09453 -1.52329,-4.56988 -0.57124,-2.66577 -1.33289,-5.14113 -0.19041,-0.19041 -0.19041,-0.76165 l -3.237,-10.09183 -1.14248,-3.99865 q 0,0 -0.38082,-0.76165 -0.19041,-0.95206 -0.38082,-1.71371 -0.19042,-0.19041 -0.19042,-0.19041 0,-0.19041 -0.38082,-0.19041 z m 204.88312,97.87177 q 0,1.33288 -0.76165,2.09453 0,0.19041 -0.19041,0.38082 -0.19041,0.38083 -0.19041,0.19041 -0.19041,0.19042 -0.38082,0.19042 -0.19042,0.19041 -0.57124,0.38082 -0.19041,0.19041 -0.38082,0.19041 l -0.57124,2.66577 q -0.19041,0.76165 -0.38082,1.33288 -0.19042,0.76165 -0.38083,1.5233 -0.19041,0.76165 -0.38082,2.28494 0,1.71371 -0.38083,0.95206 -0.57123,-1.33288 -0.57123,-2.85618 0.19041,-1.52329 0,-2.85618 -0.57124,0.76165 -1.33289,1.33289 -0.57123,0.57123 -0.57123,0.57123 -0.19041,0 -0.57124,0.38083 0,0.38082 -0.38082,2.28494 -0.19041,1.90412 -0.57124,3.80824 -0.19041,1.90412 -0.38082,2.28495 0,0.19041 -0.38083,-0.19042 -0.19041,-0.19041 -0.19041,-0.38082 -0.38082,-1.90412 -0.38082,-2.85618 0.19041,-0.95206 -0.76165,-2.47536 -0.19041,0.19042 -0.38082,0.19042 0,0.19041 -0.38083,0.57123 l -0.95206,1.14247 q -0.19041,0.38083 -0.57123,0.76165 -0.38083,0.38083 -1.5233,1.14247 -0.19041,0.57124 -0.38082,1.14248 0,0.76164 -0.38083,1.33288 -0.19041,0.19041 -0.57123,0 -0.19042,-0.19041 -0.19042,-0.38082 -0.19041,-0.76165 -0.38082,-1.5233 0,-0.57124 -0.19041,-1.33288 l -1.5233,-1.71371 q -1.52329,-0.38083 -2.09453,-0.57124 -0.38082,0.38083 -0.38082,0.38083 -0.19042,0 -0.38083,-0.38083 0,-0.19041 -0.38082,-0.19041 -0.76165,0.76165 -0.95206,1.14247 -0.38083,0.76165 -0.38083,0.76165 -0.19041,0.19041 -0.19041,0.38082 0,0.19042 -0.19041,0.38083 l -0.57124,1.33288 q -0.76164,2.09453 -1.90412,4.18907 -0.95206,2.28494 -3.237,4.18906 l -0.19041,0.19041 q -0.19041,0.19041 -0.38083,0.38083 0,0.38082 -0.38082,0.38082 -0.19041,0.19041 -1.14247,-0.95206 -0.76165,-0.95206 -0.76165,-0.95206 -0.57124,-0.57124 -1.14247,-1.5233 -0.38083,-0.76164 -0.76165,-1.33288 -1.71371,-3.237 -3.237,-6.66442 -1.33289,-3.237 -2.85618,-6.47401 0,-0.19041 -0.19042,-0.38082 0,-0.19041 0,-0.38083 -0.19041,-0.76164 -0.57123,-1.52329 -0.38083,-0.57124 -0.76165,-1.33289 h -0.95206 q -0.19041,0 -0.57124,-0.19041 -0.19041,0 -0.38082,0 -2.28494,-0.38082 -3.61783,-1.52329 -1.33288,-1.14248 -2.09453,-2.09454 -0.57124,-0.57123 -0.95206,-1.33288 l -2.85618,-3.42742 q -0.19041,-0.19041 -0.19041,-0.38082 0,0 -0.19041,-0.19041 l -1.5233,-1.90412 q -0.76165,0 -0.95206,0 0,0.19041 0,0.19041 -0.19041,0.19041 -0.38082,0.57124 -0.19042,0.57123 -0.38083,0.76164 -0.38082,1.14248 -0.76165,1.71371 -0.19041,0.19041 -0.38082,0.57124 0,0.57123 -0.38082,0.95206 l -2.28495,4.37947 q -0.95206,1.71371 -1.90412,3.0466 l -1.52329,1.7137 -0.19042,0.19042 q -0.38082,0.38082 -1.14247,0.76164 -0.19041,0.76165 -0.76165,2.47536 -0.38082,1.90412 -1.7137,2.09453 -0.38083,0 -0.76165,-0.38082 -0.76165,-0.57124 -1.33289,-1.71371 -0.38082,-0.95206 -0.95206,-1.71371 -0.38082,-0.76165 -0.95206,-1.33288 -0.57123,-0.57124 -1.14247,-1.14247 -1.71371,-1.5233 -3.237,-3.42742 -1.33289,-1.90412 -2.28495,-3.80824 -0.19041,-0.76165 -0.57123,-1.5233 -0.38083,-0.57123 -0.76165,-1.33288 -0.57124,0 -0.95206,-0.19041 -0.19041,0 -0.38082,-0.19041 -0.19042,0 -0.38083,0.19041 -0.19041,2.09453 0.57124,5.33153 0.76165,3.42742 0.76165,5.71236 0.19041,2.47536 -2.09454,2.28495 -2.09453,-0.38083 -2.09453,-2.85618 0.19041,-2.28495 0.95206,-5.52195 0.76165,-3.04659 0.38083,-5.14112 0,-0.19042 -0.19042,-0.19042 0,0.19042 0,0.19042 -0.19041,0 -0.19041,0.19041 0,0 -0.38082,0.38082 -0.19041,0.19041 -0.38083,0.57124 -0.19041,0.38082 -0.38082,0 -0.19041,-0.38083 -0.19041,-1.14247 -0.38083,0 -0.76165,0.19041 0.38082,1.14247 0.38082,1.90412 0,0.38082 -0.19041,0.57123 -0.38082,0.38083 -0.57123,0.38083 -0.95206,0 -0.95206,-1.5233 v -1.14247 q -0.19042,0.19041 -0.38083,0.19041 0,0 0,0 0.19041,0.57124 0.19041,1.14247 0,0.76165 0.19042,1.33289 0.38082,2.47535 -0.57124,3.42741 -0.76165,0.76165 -1.71371,0.38083 -0.19041,-0.38083 -0.38082,-0.95206 0,-0.57124 0,-0.76165 -0.19041,-1.14247 0,-2.28494 0.19041,-1.14248 0.38082,-2.28495 -0.57123,0 -2.09453,-0.38082 0.19041,0.57123 0.19041,1.33288 0.38082,2.47536 0.95206,5.14113 0.76165,2.85618 0.76165,4.95071 0,1.33288 -0.38082,1.71371 -0.38083,0.57123 -0.76165,1.14247 h -0.19042 q -0.19041,0.19041 -0.57123,0.19041 -0.19041,3.237 -0.38083,6.47401 0,3.237 -0.38082,6.47401 0,0.19041 -0.38082,0.38082 -0.38083,0.19041 -0.38083,0 -0.38082,-3.237 -0.38082,-6.66442 0,-3.42742 -0.38083,-6.85483 -0.95206,-0.76165 -0.95206,-3.42742 0.19042,-2.09453 0.76165,-4.56989 0.76165,-2.47535 0.95206,-4.7603 l 0.19041,-1.90412 q -0.76164,-0.38082 -1.14247,-0.76164 -0.38082,-0.19042 -1.33288,-0.76165 -0.19041,0.19041 -0.38083,0.76165 0,0.57123 -0.19041,0.95206 -0.19041,0.38082 -0.38082,1.33288 0,0.95206 -0.38083,0.57124 -0.57123,-0.57124 -0.38082,-1.71371 0.19041,-0.95206 -0.19041,-1.71371 -0.19041,-0.19041 -0.57124,-0.38082 -0.19041,0 -0.19041,0.38082 -0.19041,0.95206 0,2.66577 0.19041,1.71371 0.19041,2.85618 0.19041,1.14247 -0.95206,0.76165 -1.52329,-0.38083 -0.95206,-2.85618 0.57124,-2.28495 0.19041,-3.99866 0,-0.19041 -0.38082,-0.38082 -0.19041,-0.19041 -0.19041,0 -0.19041,0.95206 -0.19041,2.47536 0.19041,1.7137 0.19041,2.66576 0,1.14248 -0.76165,0.57124 -1.33288,-0.95206 -0.95206,-3.04659 0.57124,-2.09453 0.19041,-3.80824 0,-0.38083 -0.19041,-0.57124 -0.19041,-0.19041 -0.38082,-0.38082 -0.76165,-0.95206 -0.76165,-1.14247 -0.19041,-0.19042 -0.57124,-0.57124 -0.19041,-0.57124 0,-0.19041 -0.19041,-0.19041 -0.38082,-0.19041 -0.19041,-0.19042 -0.38083,-0.38083 v 2.47536 q 0.19042,1.71371 0.38083,3.61783 0.19041,1.90412 0.19041,3.237 0,0.38082 -0.19041,0.95206 0,0.57124 -0.38083,0.76165 -0.76164,0 -1.14247,-0.95206 -0.38082,-0.95206 -0.57123,-1.5233 0,-0.38082 -0.19042,-0.57123 0,-0.19042 0,-0.38083 -0.19041,-1.14247 -0.19041,-2.28494 0.19041,-1.14247 0.38083,-2.28495 0.19041,-0.95206 0.19041,-1.90412 0.19041,-1.14247 0.19041,-2.09453 -0.19041,-0.19041 -0.38082,-0.57123 0,-0.38083 -0.19042,-0.76165 -0.19041,0.19041 -0.19041,0.38082 0,0.19041 -0.19041,0.57124 v 0.19041 h -0.19041 q -0.19041,-0.95206 -0.38083,-1.5233 -0.19041,-0.76164 -0.19041,-0.57123 0,-0.19041 -0.19041,-0.19041 0,0 0,-0.19042 -0.19041,0 -0.19041,0.19042 0,0.19041 0,0.19041 -0.19041,0.19041 -0.19041,0.38082 0.19041,0.19041 0.19041,0.57124 0,0.19041 0.19041,1.33288 0.19041,1.14247 -0.38082,2.09453 0,0.57124 -0.38083,0.19042 -0.19041,-0.19042 -0.38082,-0.76165 -0.19041,-0.57124 -0.19041,-0.76165 -0.19042,-0.76165 0,-1.5233 0.19041,-0.76164 0.19041,-1.52329 v -1.14247 l -0.38083,-0.38083 v 2.85618 q 0,0.76165 -0.38082,0.38083 -0.19041,-0.19042 -0.38082,-0.38083 -0.19042,-0.19041 -0.38083,-0.38082 -0.38082,-0.38083 -0.95206,-1.33289 -0.57123,-1.14247 -0.19041,-1.90412 0,-0.19041 -0.19041,-0.19041 0,0 0,-0.19041 l -0.38083,-0.95206 q -0.19041,-0.19041 -0.57123,-0.76165 -0.19041,-0.76165 -0.57124,-1.14247 -0.76165,-0.76165 -1.52329,-1.33289 -0.57124,-0.76164 -1.14248,-1.52329 -2.47535,-2.28495 -4.56988,-5.14113 -1.90412,-2.09453 -3.42742,-5.52194 -2.09453,-3.99866 -3.61783,-8.56854 -1.52329,-4.56989 -2.09453,-9.71102 -0.19041,-0.19041 -0.19041,-0.57123 -0.19041,-0.57124 -0.19041,-2.09453 -0.19042,-0.95206 -0.38083,-1.90412 0,-0.95206 0,-1.71371 0,-0.95206 0,-1.90412 0,-1.14247 -0.19041,-2.28495 v -15.61378 q 0,-3.04659 0,-6.2836 0,-3.42741 0.19041,-6.85483 0.19041,-0.76165 0.19041,-1.33288 0,-0.57124 0,-1.14247 0.38083,-4.7603 0.95206,-8.75896 0.76165,-3.99865 2.09454,-5.90277 0.57123,-1.71371 1.33288,-3.42741 0.95206,-1.71371 1.71371,-3.42742 0.38082,-0.95206 0.95206,-1.90412 0.57123,-0.95206 1.14247,-1.71371 4.37948,-7.04524 11.42472,-12.18637 1.33288,-1.14247 2.85618,-2.09453 1.71371,-1.14247 3.237,-1.90412 1.14248,-0.76165 2.28495,-1.33288 1.33288,-0.57124 2.66577,-1.14247 0.76164,-0.38083 1.33288,-0.57124 0.76165,-0.19041 1.33288,-0.38082 0.19042,-0.19042 0.38083,-0.19042 2.09453,-0.95206 4.56989,-1.52329 2.47535,-0.76165 4.95071,-1.33289 0.38082,0 0.76165,0 0.57123,-0.19041 1.14247,-0.38082 1.90412,-0.38082 3.80824,-0.76165 2.09453,-0.38082 3.99865,-0.57123 h 1.90412 q 2.09453,-0.19042 4.18907,-0.19042 2.28494,-0.19041 4.56988,-0.19041 1.5233,0 3.0466,0 1.52329,0 2.85618,0.19041 1.14247,-0.38082 1.7137,0 0.95206,0.19042 1.90412,0.19042 0.95206,0 2.09454,0.19041 1.52329,0.19041 3.04659,0.38082 1.71371,0.19041 3.237,0.57124 3.23701,0.76165 6.47401,1.52329 3.42742,0.76165 5.90277,2.09454 7.04525,2.66576 12.75761,6.66442 5.90277,3.99865 10.09183,9.5206 0,0.19041 0,0.19041 0.19041,0 0.19041,0.19041 0.57124,0.76165 1.14248,1.5233 0.57123,0.57123 0.95206,1.52329 1.52329,2.28495 3.04659,5.33154 2.28494,2.47535 3.42741,8.94936 l 0.57124,3.04659 q 0.95206,3.23701 1.14247,8.56854 0.19041,5.14113 0.19041,10.09184 v 3.04659 q 0.19042,1.14247 0.19042,2.28495 0,0.95206 0,1.90412 0,2.85618 0,7.42606 0,4.56989 -0.19042,8.94937 -0.19041,3.237 -0.57123,6.28359 -0.19041,2.85618 -0.76165,4.56989 -0.19041,0.38083 -0.19041,0.95206 0,0.38083 -0.19041,0.76165 -0.57124,3.237 -1.71371,6.09318 -0.57124,1.5233 -1.14247,3.0466 -0.57124,1.52329 -1.33289,2.85618 -0.19041,0.76164 -0.76165,1.52329 -0.38082,0.57124 -0.76164,1.33289 -0.95206,1.52329 -2.09454,3.04659 -0.95206,1.52329 -2.09453,2.85618 -0.57123,0.57123 -1.14247,1.33288 -0.57124,0.57124 -0.57124,0.57124 -1.52329,1.52329 -1.52329,1.52329 0,-0.19041 0.57123,-0.57123 0.76165,-0.38083 0.95206,0.38082 0,0 0.38083,0.38083 l 0.76165,1.14247 q 0.38082,0.57123 0.76164,1.14247 0.38083,0.57124 0.76165,1.14247 l 0.76165,1.14248 q 0,0.19041 0,0.19041 0.19041,0 0.19041,0.19041 l 1.71371,2.28494 0.57124,0.95206 1.52329,2.09454 q 0.95206,1.14247 1.71371,2.28494 0.76165,1.14247 1.5233,2.47536 0,0 0.38082,0.38082 0.95206,1.33288 1.90412,2.47536 0.95206,1.14247 1.5233,2.47535 0.19041,0.38083 0.19041,0.38083 0.19041,0.19041 0.19041,0.76164 0.19041,0.19042 0.19041,1.14248 z m -65.1209,-43.98518 h 0.95206 q 0.95206,-0.19041 2.09453,-0.38082 1.14247,-0.19041 2.09453,-0.57124 2.85618,-1.71371 4.7603,-6.09318 1.90412,-4.56989 2.85618,-9.33019 1.14247,-4.95071 1.14247,-7.80689 v -16.56585 q 0,-1.52329 -0.19041,-3.04659 0,-1.71371 0,-3.237 -0.19041,-3.04659 -0.95206,-5.90277 -0.57123,-3.0466 -2.47535,-5.52195 -0.38083,-0.38083 -0.95206,-0.76165 -0.38083,-0.57124 -0.95206,-0.95206 h -0.19042 q -0.19041,0.19041 -0.38082,0.38082 0,0 -0.38082,0.19042 l -2.47536,1.14247 q -0.19041,0.19041 -0.38082,0.19041 -0.19042,0 -0.38083,0.19041 -0.19041,0.38083 -0.38082,1.14247 0,0.57124 -0.38083,0.95206 -0.19041,0.38083 -1.14247,0.57124 -0.76165,0 -1.14247,0.19041 -0.38082,0 -1.33288,0 -0.76165,-0.19041 -1.14248,-0.57123 -0.19041,-0.19042 -0.19041,-0.57124 -2.85618,-0.57124 -5.14112,-1.90412 -0.95206,-0.57124 -2.09453,-1.33288 -0.38083,-0.38083 -0.57124,-0.38083 h -0.19041 q -2.09453,1.90412 -3.61783,5.14113 -0.95206,3.04659 -1.33288,7.04524 v 0.38082 q 0,1.14248 -0.19042,2.28495 0,1.14247 0,2.28494 v 10.47266 q -0.19041,0.76165 -0.19041,1.71371 0.19041,0.95206 0.19041,1.90412 v 3.237 q 0,2.85618 0.95206,8.18772 1.14248,5.14112 3.0466,9.90142 2.09453,4.7603 4.7603,6.66442 0.38082,0 0.57123,0.19042 0.19041,0 0.38083,0 0.76164,0.19041 1.33288,0.38082 0.57124,0 1.33288,0 0.57124,0.19041 1.14248,0.19041 0.57123,0 1.14247,0 z m -41.129,33.3221 q -0.57123,-0.76164 0.57124,-2.28494 0,0.19041 0,0.57124 0.19041,0.38082 0,0.76164 0,0 0,0.57124 0,0.38082 -0.19041,0.57124 -0.19041,0 -0.38083,-0.19042 z m 199.55154,17.89873 q -0.19041,0.19041 -0.38083,0.76165 0,0.57124 -0.38082,0.57124 -0.38082,-0.19042 -0.57124,-0.76165 0,-0.57124 -0.38082,-1.14247 -0.19041,0 -0.38082,-0.19042 0,0 0,0 -0.19042,0 -0.19042,-0.19041 0,0 -0.19041,0 -1.90412,-1.90412 -3.61783,-3.99865 -1.7137,-2.09453 -3.80824,-3.99865 -0.19041,-0.38083 -0.76164,-0.95206 -0.38083,-0.38083 -0.95206,-0.95206 -0.57124,-0.38083 -1.14248,-0.76165 -0.19041,0 -0.38082,0.19041 0,0.38083 -0.19041,0.57124 -0.76165,1.14247 -1.33289,1.33288 -0.57123,0.19041 -1.33288,-0.57123 -0.19041,-0.19042 -0.57124,-0.76165 -0.19041,-0.38083 -0.19041,0 -0.19041,1.90412 0,3.80824 0.38083,2.09453 -0.57123,3.80824 -0.38083,0.76165 -0.57124,-0.38083 0,-0.95206 0,-2.66576 0.19041,-1.71371 0,-2.66577 -0.19041,-1.33289 -0.38082,-2.66577 0,-1.14247 0,-2.47536 h -1.5233 q -6.2836,-0.19041 -12.37678,-1.14247 -1.33288,-0.19041 -2.85618,-0.38082 -1.33288,-0.19041 -2.66577,-0.38083 -2.85618,-0.57123 -4.37947,-1.14247 -2.47536,-0.76165 -4.95072,-1.71371 -2.47535,-0.95206 -4.95071,-2.09453 -2.09453,-0.95206 -3.99865,-1.90412 -1.90412,-1.14247 -3.61783,-2.47535 l -2.85618,-2.28495 q -0.76165,-0.57124 -1.52329,-1.14247 -0.57124,-0.57124 -1.14248,-1.14247 -0.19041,-0.19042 -0.38082,-0.38083 0,-0.19041 -0.38082,-0.38082 -5.14113,-5.52195 -8.37813,-12.56719 -3.04659,-7.23566 -3.99865,-16.56585 -0.38083,-3.237 -0.38083,-6.66442 0,-3.42741 0,-6.85483 v -63.21678 q 0,-1.71371 -0.19041,-3.80824 0,-2.28495 0.19041,-4.18907 0.38083,-4.18906 4.56989,-4.7603 h 33.3221 q 1.90412,0 3.99865,0 2.09453,-0.19041 3.61783,0.95206 0.76165,0.57124 1.33288,1.33289 0.38083,0.57123 0.57124,1.33288 0.19041,0.57124 0.19041,1.5233 v 69.30996 q 0,2.85618 0.19041,7.04525 0.38083,3.99865 1.5233,7.80689 1.33288,3.61783 4.18906,5.71236 0.57124,0.19041 1.14248,0.57124 0.57123,0.19041 1.14247,0.38082 0.76165,0.38082 1.33288,0.38082 2.28495,0.57124 4.56989,0.57124 2.47536,0 4.7603,-0.57124 l 1.71371,-0.57123 q 1.14247,-0.38083 1.71371,-0.76165 1.52329,-1.14247 2.47535,-2.85618 1.14247,-1.71371 1.90412,-3.61783 l 0.57124,-2.28494 q 0.76165,-3.04659 0.76165,-5.90277 0.19041,-3.0466 0.19041,-5.90278 v -69.30996 q 0,-1.14248 0.19041,-1.71371 0.38082,-0.57124 0.76165,-1.33289 0.95206,-1.52329 2.09453,-1.7137 1.33289,-0.38083 2.47536,-0.38083 h 37.70157 q 1.90412,0.19041 3.0466,1.71371 1.33288,1.33288 1.33288,3.42742 0.38082,1.7137 0.19041,3.61782 -0.19041,1.71371 -0.19041,3.23701 v 70.64285 q 0,1.71371 0,3.99865 0,2.28495 -0.38082,4.37948 -0.19042,2.09453 -0.76165,4.18906 -0.38083,1.90412 -0.76165,3.80824 -0.76165,3.42742 -1.71371,6.2836 -0.95206,2.66577 -2.47535,4.18906 -0.57124,1.33289 -1.5233,2.66577 -1.33288,2.47536 -3.237,4.37948 0,0 -0.19042,0.19041 0,0 0,0.19041 -0.57123,0.19041 -1.14247,0.95206 -0.57123,0.76165 -0.76165,0.95206 l -1.52329,1.5233 q -0.76165,0.76164 -1.14247,0.95206 l -1.14248,0.95206 q 0,0 -0.19041,0.19041 0,0 0,0.19041 -0.57123,1.14247 -0.95206,2.47536 -0.38082,1.14247 -0.76165,2.47535 -0.76164,1.90412 -1.7137,3.61783 -0.76165,1.71371 -2.09454,3.23701 l -2.09453,2.28494 q -0.57123,1.14247 -0.57123,0.76165 -0.19042,-1.14247 -0.38083,-2.47536 0,-1.14247 0,-2.28494 l -1.71371,3.237 q 0,0.19041 -0.19041,0.19041 0,0 0,0.19042 -0.38082,0.38082 -0.95206,0.76164 -0.38082,0.57124 -0.95206,0.95206 -0.38082,1.14248 -0.57123,2.28495 0,1.33288 -0.38083,2.66577 -0.19041,0.76164 -0.19041,1.52329 0.19041,0.95206 -0.57124,1.33289 -0.38082,0.19041 -0.57123,-0.57124 0,-0.76165 0,-1.33288 -0.19041,-1.71371 -0.38083,-3.42742 0,-1.5233 -0.38082,-3.42742 -0.19041,-0.19041 -0.38082,-0.38082 -0.19042,-0.19041 -0.38083,-0.38082 -0.19041,0 -0.38082,-0.38083 -0.19041,-0.38082 0,0 -0.19041,-0.38082 -0.38083,-0.76165 -0.19041,-0.19041 -0.57123,-0.38082 -0.19041,-0.19041 -0.38083,-0.38082 0,-0.19042 -0.38082,-0.38083 -0.57124,-0.38082 -1.33288,0 -0.76165,0.57124 -1.33289,1.5233 -0.57123,1.14247 -0.95206,2.09453 -0.76165,2.28494 -1.71371,4.56989 -0.76164,2.28494 -1.90412,4.37947 v 0.19042 q -0.38082,0.76164 -0.95206,1.52329 -0.57123,0.76165 -1.33288,0.95206 z M 828.47923,945.1557 q 0,0.57124 0,1.14248 0.19041,0.57123 0.19041,1.14247 0,0.76165 -0.19041,1.52329 0,0.57124 -0.19041,1.33289 l -0.57124,0.95206 q 0,0.19041 -0.38082,0.57123 -0.19041,0.19042 -0.19041,0.19042 -0.76165,0.76164 -1.33289,1.14247 -0.19041,0.19041 -0.38082,0.19041 0,0 -0.19041,0.19041 -0.57124,0.57124 -1.14248,1.14247 -0.38082,0.57124 -1.14247,0.95206 -0.38082,0.38083 -0.76165,0.57124 -0.19041,0.38082 -1.14247,0.76165 -0.76165,0.19041 -1.71371,0.57123 -0.76164,0.38083 -1.52329,0.19042 -0.76165,-0.38083 -0.95206,-0.76165 -0.19041,-0.38083 -0.57124,-0.95206 l -0.76165,-0.76165 q -0.76164,0.38082 -0.19041,1.5233 0.57124,1.14247 -0.38082,4.7603 l -1.5233,2.09453 q -0.19041,0.19041 -0.57123,0.76165 -0.19042,0.57123 -0.19042,0.19041 -0.38082,-1.90412 -0.38082,-3.99865 0.19041,-2.09454 -0.19041,-3.99866 -0.19041,0 -0.19041,0 0,0.19042 0,0.19042 -0.38083,0.57123 -0.95206,1.14247 -0.57124,0.57123 -0.95206,0.95206 l -0.95206,0.95206 q -0.19042,0 -0.19042,0 0,0.19041 -0.19041,0.19041 -0.76165,0.95206 -1.90412,1.90412 -0.95206,0.95206 -1.90412,1.90412 -0.38082,0.38082 -1.14247,0.76165 -0.38082,4.18906 -0.57124,9.33019 0,5.14112 -0.38082,9.5206 0,0.19041 -0.38082,-0.38083 -0.38083,-0.38082 -0.38083,-0.57123 -0.38082,-4.37948 -0.38082,-9.33019 0,-4.7603 -0.38083,-8.94937 -0.95206,-0.95206 -1.52329,-2.09453 -0.38083,-0.76165 -0.76165,-1.52329 -0.19041,-0.57124 -0.57124,-1.33289 l -0.57123,-1.14247 h -0.38083 q -0.19041,0.19041 -0.57123,0 -0.19041,-0.19041 -0.19041,0.19041 -0.38083,4.18907 -0.38083,9.13978 0,4.95071 -0.38082,9.33019 l -1.5233,0.38082 q -0.19041,0 -0.38082,0 -0.19041,0.19041 -0.38083,0.19041 -0.76165,0 -0.76165,0.19041 -0.38082,-4.37947 -0.38082,-9.71101 0,-5.14112 -0.38082,-9.33019 0,0 -1.5233,0 l -0.57124,0.57124 q 0,0 -0.19041,0 0,0.19041 -0.19041,0.19041 l -1.33288,1.33289 q -0.38083,0.38082 -0.76165,1.52329 -0.19041,0.38083 -0.57124,0.76165 -0.19041,0.57124 -0.19041,0.95206 -0.19041,3.80824 -0.38082,7.61648 0,3.99865 -0.38083,7.80689 0,1.90412 -0.76165,3.23701 -0.19041,0.19041 -0.57123,-0.19042 -0.38083,-0.19041 -0.38083,-0.38082 -0.38082,-4.37948 -0.38082,-8.75895 0.19041,-4.18907 -0.38082,-8.37813 0,-0.95206 -0.19042,0.76165 0,1.90412 -0.19041,3.61783 0,1.7137 -0.38082,0.95206 -0.76165,-2.28495 -0.57124,-4.7603 0.38083,-2.28495 0,-4.56989 -0.19041,-0.19041 -0.38082,-0.38083 -0.19041,-0.19041 -0.38083,-0.38082 -0.38082,-0.38082 -0.76164,-0.95206 -0.38083,-0.38082 -0.76165,-0.76165 -0.38083,-0.57123 -0.76165,-1.14247 -0.38082,-0.38082 -0.76165,-0.76165 l -0.95206,-1.14247 q -0.19041,0.95206 -0.19041,1.90412 0,1.14247 -0.38082,2.09453 0,0.19041 -0.38083,0.19041 -0.19041,0.19042 -0.38082,0.38083 -0.19041,0.19041 -0.38083,0.19041 -0.19041,0.19041 -0.38082,0.57124 -0.76165,0.76164 -0.76165,0.57123 -0.38082,-1.33288 -0.38082,-2.66577 0.19041,-1.14247 -0.19041,-2.28494 -0.57124,0.76165 -1.14248,1.33288 -0.57123,0.76165 -1.33288,1.33289 -1.14247,1.14247 -1.71371,1.33288 -0.19041,0.95206 -0.38082,1.90412 0,1.14247 -0.19041,2.09453 -0.19042,0.57124 -0.38083,1.14248 0,0.76164 -0.38082,1.33288 -0.76165,0.76165 -0.95206,0.19041 -0.57124,-0.95206 -0.95206,-3.80824 -0.19041,-2.66577 -0.38083,-3.04659 -0.19041,0 -0.57123,-0.19041 -0.19041,-0.19041 0,-0.19041 l -0.38083,-0.38083 q -0.76164,-0.76165 -1.33288,-1.90412 -0.38082,-0.95206 -0.76165,-1.71371 0,-0.19041 -0.19041,-0.19041 0,0 0,-0.19041 -0.19041,0.95206 -0.19041,1.90412 0,0.95206 -0.38083,1.90412 -0.19041,0.19041 -0.38082,0.19041 -0.19041,0.19041 -0.38082,0.57124 -0.19042,0.19041 -0.38083,0.76165 -0.19041,0.57123 -0.38082,0.38082 -0.19041,-1.14247 -0.38083,-2.28494 0,-1.14248 -0.19041,-2.09454 -0.38082,0.76165 -0.76165,1.33289 -0.38082,0.76165 -0.95206,1.52329 -2.09453,3.0466 -3.99865,6.09319 -1.90412,3.04659 -3.61783,6.28359 0.19042,-0.38082 -0.38082,0.76165 -0.57124,1.14247 -1.33288,2.09453 l -0.19042,0.19042 q -0.38082,0.38082 -1.14247,0.76164 -0.19041,0.57124 -0.38082,1.14248 0,0.76164 -0.38083,1.52329 -0.19041,0.38083 -0.38082,0.95206 0,0.57124 -0.38082,0.95206 -0.38083,0.57124 -0.76165,0.19041 -0.57124,-0.76164 -0.95206,-3.04659 -0.19041,-2.28494 -0.38083,-2.47535 l -1.14247,-1.14248 q 0,-0.38082 -0.38082,-0.38082 -0.19041,-0.76165 -0.57124,-1.14247 -0.38082,-0.38083 -0.38082,-0.38083 -0.76165,-1.14247 -1.5233,-2.47535 -0.76165,-1.14247 -1.52329,-2.28495 -1.14248,-1.7137 -2.47536,-3.42741 -1.14247,-1.71371 -2.47536,-3.42742 -0.76164,-0.95206 -1.52329,-1.90412 -0.57124,-0.76165 -1.5233,-1.52329 -0.57123,-0.57124 -1.33288,-1.14248 -0.57124,-0.57123 -0.57124,-0.57123 0,0 -0.38082,-0.38083 -0.19041,-0.19041 -0.57124,-0.38082 -0.19041,2.85618 -0.19041,8.56854 0,5.71236 -0.19041,11.42472 0,5.71236 -0.19041,8.56854 0,0.19041 -0.19042,-0.38082 -0.19041,-0.57124 -0.19041,-0.76165 -0.57123,-7.99731 -0.38082,-14.09049 0.38082,-6.09318 -0.95206,-14.09049 -1.14247,-0.57123 -1.71371,-1.14247 -1.33288,-1.14247 -1.71371,-3.237 -0.38082,-2.09454 -0.19041,-4.18907 0.19041,-2.28494 0.19041,-4.18906 V 829.38521 q 0,-0.95206 -0.19041,-1.90412 0,-1.14248 0.19041,-2.09454 0,-0.76164 0.38083,-1.90412 0.38082,-0.76164 0.57123,-0.95206 0.38083,-0.57123 0.76165,-0.95206 0.57124,-0.38082 0.95206,-0.57123 0.38082,-0.19041 0.76165,-0.19041 0.38082,-0.19042 0.76165,-0.19042 0.76164,-0.38082 1.52329,-0.38082 0.76165,0 1.5233,0 1.14247,0 2.47535,0.19041 1.33289,0 2.28495,0 h 28.94262 q 0.95206,0 1.90412,0 1.14247,-0.19041 2.09453,0.19041 0.95206,0.19042 1.33289,0.76165 0.38082,0.38083 0.57123,0.57124 1.14248,0.76165 1.33289,2.09453 0.19041,1.14247 0.19041,2.28494 0.19041,3.99866 0,7.99731 0,3.99865 0,7.9973 v 70.83327 l 0.76165,1.52329 h 51.98248 q 1.52329,0 3.04659,0.95206 l 1.14247,1.14247 0.57124,1.14248 q 0.38082,0.76164 0.38082,1.52329 0.19041,1.33289 0,2.85618 0,1.5233 0,2.85618 z m 145.09385,0.38083 q 0.57123,1.14247 0.95206,2.47535 0.57123,1.14248 0.19041,2.47536 -0.19041,0.76165 -0.57124,1.33288 -0.38082,0.38083 -0.76165,0.76165 l -0.57123,0.57124 q -0.19041,0.38082 -0.38083,0.95206 0,0.57123 -0.38082,0.95206 -0.19041,0.57123 -0.38082,1.14247 0,0.57124 -0.38083,1.14247 -0.19041,0.57124 -0.38082,1.5233 0,1.14247 -0.38083,0.76165 -0.57123,-0.57124 -0.57123,-1.5233 0,-0.76165 0,-1.5233 -0.76165,0.95206 -1.71371,1.90412 -0.76165,1.14248 -1.5233,2.09454 -1.33288,2.09453 -2.66576,4.37947 -1.33289,2.47536 -2.47536,4.7603 -0.76165,1.5233 -1.5233,3.23701 -0.76164,1.7137 -1.7137,3.237 -1.14248,1.90412 -1.33289,2.09453 -0.19041,0.19041 -1.33288,1.33289 h -0.19041 q -0.19042,0.19041 -0.76165,0.57123 -0.19041,1.71371 -0.38083,3.42742 0,1.90412 -0.38082,3.61783 -0.19041,0.38082 -0.38082,-0.38083 -0.19042,-0.76165 -0.38083,-1.14247 -0.19041,-1.5233 -0.19041,-3.237 0,-1.5233 -0.38082,-3.0466 -0.57124,-0.57123 -1.14248,-1.7137 0,-0.19042 -0.19041,-0.38083 0,0 0,0 -0.57123,-1.33288 -1.14247,-2.66577 -0.38082,-1.14247 -0.95206,-2.47535 -0.95206,-1.90412 -2.09453,-3.04659 -0.19041,-0.19042 -0.38083,-0.19042 0,0 -0.19041,-0.19041 -0.19041,0.19041 -0.38082,0.38083 -0.19041,0.19041 -0.38083,0.38082 -1.7137,1.14247 -1.52329,1.5233 0.38082,0.38082 1.14247,0.57123 0.95206,0.38083 0.95206,1.14247 0,0.95206 -2.09453,3.0466 -0.57124,0.76164 -0.57124,-1.14248 0,-1.7137 -0.19041,-2.47535 -0.19041,-1.14247 -0.38082,-2.47536 0,-1.14247 -0.38083,-2.28494 -1.14247,-1.14247 -1.71371,-2.66577 -0.57123,-0.95206 -1.14247,-2.09453 -0.38082,-0.95206 -0.76165,-1.90412 l -0.57123,-1.5233 q -0.19041,-0.57123 -0.76165,-1.14247 -0.38082,-0.38082 -0.76165,-0.76165 0,-0.19041 0,0 v 0 q -0.38082,0 -2.47535,1.33289 0,0.19041 0.19041,0 0.19041,-0.19042 2.28494,-1.33289 l -0.19041,-0.19041 -0.38082,-0.38082 q -2.47536,2.47535 -2.09454,2.47535 0.38083,0 1.5233,-0.95206 1.14247,-0.76165 1.33288,-1.14247 0.19042,-0.38082 -2.66576,1.5233 l -0.38083,0.38082 q -0.19041,-0.19041 -0.38082,-0.76165 -0.19041,-0.57123 -0.19041,-0.19041 -0.38083,1.14247 -0.38083,3.237 0,2.28495 -0.38082,1.33289 -0.38083,-0.95206 -0.38083,-3.04659 0,-1.90412 -0.38082,-3.61783 -0.57124,-0.95206 -1.14247,-2.09453 -0.38083,-0.95206 -0.95206,-1.90412 -0.38083,0 -0.38083,-0.38083 -0.38082,-0.38082 -0.95206,-0.95206 -0.38082,-0.57123 -0.19041,-0.38082 -0.19041,-0.38083 -0.38082,-0.76165 -0.19041,-0.38082 -0.38083,-0.57124 -0.76164,-1.90412 -1.33288,-3.80824 -0.57124,-1.90412 -1.33288,-3.80824 -0.19042,-0.38082 -0.19042,-0.57123 0,-0.19042 -0.19041,-0.38083 0,-0.38082 -0.38082,-1.14247 0,-0.38082 -0.19041,-0.57124 0,-0.19041 -0.19042,-0.57123 0,-0.38083 -0.19041,-0.38083 0,-0.38082 -0.38082,-1.14247 0,-0.19041 0,-0.19041 0,0 -0.76165,0 -0.19041,0.38082 -0.19041,1.14247 0,0.76165 -0.76165,1.14247 -0.38082,0.95206 -0.95206,2.09454 -0.57124,0.95206 -1.14247,1.90412 -1.33289,2.47535 -2.66577,5.52195 -1.14247,2.85618 -2.47536,6.09318 -0.76164,2.28494 -1.7137,4.56989 -0.76165,2.28494 -1.71371,4.18906 -0.76165,1.71371 -1.5233,3.42742 -0.76165,1.90412 -1.71371,3.42741 -0.19041,0.38083 -0.76164,0.95206 -0.38083,0.76165 -1.14248,0.76165 -0.76164,0.19041 -1.52329,-0.57123 -0.76165,-1.14248 -1.33289,-2.47536 -0.38082,-1.33288 -0.76164,-2.66577 -0.95206,-2.09453 -1.71371,-4.95071 -0.76165,-2.85618 -1.33289,-5.90277 -0.76164,-3.04659 -1.52329,-5.90277 -0.57124,-2.85618 -1.5233,-4.95072 l -0.57123,-1.52329 q -0.19042,-0.38083 -0.38083,-0.76165 0,-0.38083 -0.19041,-0.95206 -0.38082,-0.76165 -0.57124,-1.33289 -0.19041,-0.19041 -0.38082,-0.38082 -0.19041,-0.38082 -0.19041,0 -0.38083,1.90412 -0.38083,4.18907 0,2.09453 -0.38082,4.18906 -0.19041,0.76165 -0.38082,-0.38082 -0.19042,-1.33289 -0.38083,-1.90412 -1.33288,-2.66577 -0.76165,-3.23701 0.57124,-0.57124 1.14248,-0.95206 0.57123,-0.38082 -0.95206,-2.47536 -0.19042,0 -0.57124,0.76165 -0.19041,0.19041 -0.19041,0.38083 0,0.19041 -0.19041,0.38082 -0.38083,0.57124 -0.76165,1.14247 -0.38083,0.38083 -0.95206,0.76165 -0.38083,0.38083 -0.57124,0.38083 -0.19041,2.09453 -0.38082,4.37947 0,2.09453 -0.38083,4.18907 0,0.19041 -0.38082,0.38082 -0.38082,0.19041 -0.38082,0 -0.38083,-2.28494 -0.38083,-4.56989 0,-2.47535 -0.38082,-4.95071 -0.95206,-0.95206 -1.71371,-2.28495 -0.76165,-1.33288 -1.33288,-2.09453 -1.71371,-3.42741 -1.5233,-3.237 0.19041,0 0.57124,1.14247 0.38082,1.33288 0,1.71371 -0.57124,1.14247 -0.57124,1.33288 -0.19041,0.57124 -0.38082,1.14247 -0.19042,0.38083 -0.38083,0.95206 -0.38082,1.14248 -0.76165,2.28495 -0.38082,1.14247 -0.76164,2.09453 l -1.14248,3.23701 q -0.19041,0.76164 -0.57123,1.52329 -0.38083,0.57124 -0.76165,1.14247 -0.57124,0.95206 -1.5233,1.5233 -0.38082,0.38082 -0.76164,1.14247 l -0.57124,1.33289 q -0.38082,1.52329 -0.95206,3.237 -0.57124,1.71371 -1.14247,3.237 0,0.19042 -0.19041,0.19042 0,0.19041 0,0.19041 -0.19042,1.33288 -0.57124,2.47535 -0.38082,1.33289 -0.76165,2.66577 -0.19041,0.19041 -0.19041,0.57124 0,0.38082 -0.19041,0.76165 -0.57124,2.28494 -1.14247,4.56988 -0.38083,2.47536 -1.14248,4.56989 -0.38082,1.90412 -0.95206,3.61783 -0.57123,1.71371 -1.14247,3.42742 -0.19041,0.76164 -0.76165,1.52329 -0.38082,0.95206 -0.76164,1.90412 l -1.14248,1.5233 q -0.57123,0.57123 -1.52329,0.95206 -0.19041,2.09453 -0.38083,4.18906 0,2.28495 -0.38082,4.37948 -0.19041,0.38082 -0.57124,0.76165 -0.38082,0.38082 -0.38082,0.19041 -0.38082,-2.66577 -0.38082,-5.14113 0,-2.47535 -0.38083,-4.95071 -0.38082,-0.38082 -0.76165,-0.76165 -0.19041,-0.38082 -0.57123,-0.57123 l -1.71371,-1.90412 q -0.19041,-0.38083 -0.57124,-0.76165 -0.19041,-0.38082 -0.57123,-0.76165 -0.76165,-1.14247 -1.71371,-2.28494 -0.76165,-1.14247 -1.33288,-2.28495 -2.09454,-3.61782 -3.61783,-7.42606 -1.5233,-3.61783 -3.23701,-7.23566 -0.76164,-1.5233 -1.52329,-3.237 -0.76165,-1.5233 -1.71371,-3.0466 -0.19041,-0.19041 -0.38083,-0.38082 0,-0.19041 -0.19041,-0.38082 -0.38082,-0.76165 -0.95206,-1.33289 -0.76165,-0.76165 -1.14247,-0.95206 0,0 -0.19041,-0.19041 0,0 0,-0.19041 -0.19041,0 -0.19041,-0.19041 0,0 -0.19042,0 -0.57123,0.95206 -0.76164,2.09453 0,1.14247 -0.57124,2.09453 0,0.76165 -0.57124,0.76165 -0.76164,0.19041 -1.14247,-1.33289 -0.19041,-1.33288 -0.19041,-0.95206 -0.76165,3.99866 -0.57124,1.71371 0.38083,-2.28494 -0.38082,-6.47401 -0.19041,-0.19041 -0.38082,-0.19041 -0.19042,0 -0.38083,-0.19041 -0.57123,-0.19041 -1.52329,-1.14247 -0.38083,-0.38083 -0.76165,-1.14247 -0.38083,-0.76165 -0.19041,-2.28495 0.19041,-1.14247 0.57123,-2.28494 0.38083,-1.14247 0.76165,-2.09453 0.38082,-1.33289 0.76165,-2.28495 0.57123,-1.14247 0.76165,-1.33288 l 6.474,-18.46997 q 0.95206,-3.80824 1.71371,-7.23565 0.95206,-3.61783 2.09454,-5.90278 0,-0.19041 0,-0.38082 0.19041,-0.19041 0.19041,-0.38082 0.38082,-0.76165 0.57123,-1.5233 0.38083,-0.76165 0.76165,-1.5233 0.38083,-0.76164 0.76165,-1.33288 0.38082,-0.76165 0.57124,-1.14247 l 9.90142,-28.37139 q 0.95206,-3.42742 1.71371,-6.47401 0.95206,-3.237 1.71371,-5.14112 0.57123,-1.90412 0.95206,-3.61783 0.57123,-1.90412 1.14247,-3.42742 0.57123,-2.09453 1.33288,-3.80824 2.09453,-6.28359 3.80824,-7.9973 l 3.42742,-9.90142 2.66577,-7.42607 q 0.57123,-2.09453 2.66576,-4.18907 2.09454,-2.09453 6.2836,-2.09453 h 40.93858 q 2.28494,0 3.80824,0.76165 0.57124,0.19041 1.71371,0.95206 1.33288,0.95206 2.09453,2.28494 0.76165,1.33289 1.33288,2.85618 0,0.38083 0.38083,1.14248 l 0.57123,1.90412 q 0.19042,0.38082 0.19042,0.95206 0.19041,0.57123 0.38082,0.95206 l 1.71371,4.18906 q 0,0.19041 0,0.38082 0.19041,0 0.19041,0.19042 0.38082,0.76164 0.38082,1.33288 0.57124,1.33288 0.95206,2.85618 0.57124,1.5233 0.95206,3.04659 0.19042,0.38083 0.38083,0.95206 0.19041,0.57124 0.38082,0.95206 l 0.38083,1.33289 q 1.14247,1.14247 2.47535,4.56988 1.5233,3.23701 3.04659,7.99731 l 0.57124,1.90412 q 1.33288,3.04659 2.28494,6.28359 1.14248,3.23701 1.90412,6.47401 0.95206,1.90412 1.90412,5.33154 0.95206,3.42741 1.71371,7.23565 l 9.33019,26.46727 q 1.14247,1.90412 2.28494,5.71236 1.33289,3.61783 2.66577,8.18772 0.38083,0.95206 0.57124,1.90412 0.38082,0.95206 0.57123,1.90412 l 4.18907,11.99596 q 0.57123,0.95206 0.76165,2.09453 z m -71.02368,-80.9251 q 0,0.19041 -0.19041,0.57123 -0.19041,0.38083 -0.19041,0.76165 -0.38083,1.33288 -0.95206,2.66577 -0.38083,1.33288 -0.76165,2.85618 l -4.37948,14.85213 q -0.19041,0.76165 -0.38082,1.5233 -0.19041,0.57124 -0.57124,1.5233 -0.19041,1.14247 -0.57123,2.47535 -0.38083,1.14247 -0.76165,2.47536 -0.19041,0.76165 -0.38083,1.52329 -0.19041,0.76165 -0.57123,1.5233 -0.19041,0.19041 -0.19041,0.57124 0,0.19041 -0.19042,0.57123 0,0 0,0.19041 0,0 -0.19041,0 0,0.19042 -0.19041,0.38083 0,0 0,0.19041 h 16.37543 q 0.95206,0 1.90412,0 0.95206,-0.19041 1.71371,0 h 1.5233 l -0.57124,-2.09453 q -0.38082,-0.95206 -0.57124,-1.71371 -0.19041,-0.95206 -0.57123,-1.71371 l -0.57124,-1.71371 q -0.76165,-2.09453 -1.52329,-4.56988 -0.57124,-2.66577 -1.33289,-5.14113 -0.19041,-0.19041 -0.19041,-0.76165 l -3.237,-10.09183 -1.14248,-3.99865 q 0,0 -0.38082,-0.76165 -0.19041,-0.95206 -0.38082,-1.71371 -0.19042,-0.19041 -0.19042,-0.19041 0,-0.19041 -0.38082,-0.19041 z"
       id="text1"
       style="font-size:190.412px;line-height:0;font-family:'Rubik Wet Paint';-inkscape-font-specification:'Rubik Wet Paint';fill:#ffffff;stroke:#ffffff;stroke-width:0.265156"
       aria-label="TRAQULA" /><path
       id="path1-1"
       style="fill:#ffffff;stroke:#ffffff;stroke-width:5;stroke-dasharray:none;stroke-opacity:1"
       d="m 436.71731,558.27049 -31.53339,28.58513 31.53339,26.23631 v -19.27572 h 13.16844 c 6.17127,-4.5e-4 12.02585,2.72609 15.99192,7.45423 l 24.87006,29.63984 -24.87006,29.63505 c -3.96607,4.72812 -9.82065,7.45467 -15.99192,7.4542 h -13.16844 v -19.27569 l -31.53339,26.2363 31.53339,28.58514 v -21.62943 h 9.86553 v 0.028 h 2.97691 0.64751 c 10.28437,-2.9e-4 20.04389,-4.55557 26.65331,-12.43503 l 23.13944,-27.57362 23.13945,27.57362 c 6.60959,7.87946 16.36882,12.43474 26.6533,12.43503 h 0.6475 2.97692 v -0.028 h 9.86563 v 21.62943 l 31.53328,-28.58514 -31.53328,-26.2363 v 19.27569 h -13.16853 c -6.17127,4.7e-4 -12.02585,-2.72608 -15.99194,-7.4542 l -24.86997,-29.63505 24.86997,-29.63984 c 3.9662,-4.72814 9.82067,-7.45468 15.99204,-7.45423 h 13.16843 v 19.27572 l 31.53328,-26.23631 -31.53328,-28.58513 v 21.62944 h -9.86555 v -0.028 h -2.97693 -0.64749 c -10.28456,6e-5 -20.04379,4.55557 -26.65328,12.435 l -23.13955,27.57365 -23.13944,-27.57368 c -6.60942,-7.87944 -16.36894,-12.43485 -26.65331,-12.43495 h -0.64751 -2.97691 v 0.028 h -9.86553 z" /><path
       id="path2"
       style="fill:#ffffff;stroke-width:0;stroke-dasharray:none"
       d="m 252.78309,20.039633 c -16.06351,1.0434 -22.22186,9.52734 -28.0131,38.58733 -14.66319,73.578317 -9.73605,136.547597 14.63451,187.039287 6.74757,13.9799 7.6013,15.08167 25.87979,33.36858 10.39603,10.40108 18.53662,19.27588 18.09088,19.7216 -0.44573,0.44576 -2.6548,10.09735 -4.90857,21.4485 -10.0462,50.59858 -2.00231,98.30055 23.13115,137.17632 l 5.02504,7.77371 -11.54151,-4.06031 c -37.71839,-13.26646 -61.5055,-45.68169 -75.45912,-102.83159 -4.71606,-19.31464 -10.47493,-29.03627 -21.24978,-35.87034 -10.49126,-6.65428 -22.44461,-8.9591 -36.75783,-7.08749 -49.18415,6.43136 -99.306079,29.25982 -134.082039,61.06898 -13.70804,12.5386 -14.69921,13.77978 -16.49946,20.6838 -4.3072803,16.51831 5.01702,30.30765 24.94161,36.88574 24.53364,8.09971 41.27992,21.3286 49.30589,38.9507 4.77228,10.47826 5.71345,30.78469 1.96624,42.41591 -2.79362,8.6712 -2.60257,15.8022 0.63554,23.68821 4.89712,11.92652 11.68413,16.103 29.707099,18.27827 6.44928,0.77838 16.33586,3.08798 21.97015,5.13264 9.04384,3.28203 11.53108,5.02083 21.22822,14.83965 11.82787,11.97623 13.08316,14.48053 20.83955,41.60311 3.479,12.16552 6.49079,16.29119 14.99155,20.53317 7.70967,3.84722 16.33833,3.62039 30.30214,-0.7951 26.45621,-8.36568 57.90925,-3.81999 81.78951,11.82005 9.92861,6.50258 10.12314,6.73544 21.0016,25.09225 10.09535,17.03536 12.47844,20.03174 29.55771,37.18328 20.16292,20.24832 29.86035,27.51348 51.43795,38.53416 27.01395,13.79723 58.32113,21.02424 89.29223,21.08007 30.97111,-0.0558 62.27829,-7.28284 89.29223,-21.08007 21.57761,-11.02068 31.27504,-18.28584 51.43796,-38.53416 17.07926,-17.15154 19.46237,-20.14792 29.5577,-37.18328 10.87845,-18.35681 11.07298,-18.58967 21.00159,-25.09225 23.88021,-15.64004 55.33326,-20.18573 81.7895,-11.82005 13.9638,4.41549 22.59246,4.64232 30.30214,0.7951 8.50075,-4.24198 11.51252,-8.36765 14.99156,-20.53317 7.75638,-27.12258 9.01166,-29.62688 20.83954,-41.60311 9.69713,-9.81882 12.18436,-11.55762 21.22821,-14.83965 5.6343,-2.04466 15.52087,-4.35426 21.97017,-5.13264 18.023,-2.17527 24.81,-6.35175 29.7071,-18.27827 3.2381,-7.88601 3.4291,-15.01701 0.6355,-23.68821 -3.7472,-11.63122 -2.806,-31.93765 1.9663,-42.41591 8.0259,-17.6221 24.7722,-30.85099 49.3059,-38.9507 19.9245,-6.57809 29.2488,-20.36743 24.9415,-36.88574 -1.8002,-6.90402 -2.7913,-8.1452 -16.4994,-20.6838 -34.7759,-31.80916 -84.8979,-54.63762 -134.08204,-61.06898 -14.3132,-1.87161 -26.26657,0.43321 -36.75783,7.08749 -10.77484,6.83407 -16.53372,16.5557 -21.24978,35.87034 -13.95361,57.1499 -37.74073,89.56513 -75.45912,102.83159 l -11.5415,4.06031 5.02504,-7.77371 c 25.13344,-38.87577 33.17734,-86.57774 23.13111,-137.17632 -2.25374,-11.35115 -4.46278,-21.00274 -4.90854,-21.4485 -0.44574,-0.44572 7.69484,-9.32052 18.0909,-19.7216 18.27845,-18.28691 19.13219,-19.38868 25.87976,-33.36858 24.37057,-50.49169 29.29771,-113.46097 14.63452,-187.039287 -5.79125,-29.05999 -11.94959,-37.54393 -28.0131,-38.58733 -19.27839,-1.25226 -86.1788,27.40535 -122.87476,52.63439 -14.15614,9.73258 -47.96306,41.797627 -53.82578,51.053077 -2.66141,4.20165 -3.16314,4.2417 -12.62524,0.99132 -18.01181,-6.18739 -37.94581,-9.22005 -57.89114,-9.20559 -19.94528,-0.015 -39.87931,3.0182 -57.89113,9.20559 -9.4621,3.25038 -9.96386,3.21033 -12.62526,-0.99132 -5.8627,-9.25545 -39.66961,-41.320497 -53.82577,-51.053077 -36.69593,-25.22904 -103.59639,-53.88665 -122.87479,-52.63439 z m 0.94576,24.47443 c 1.1928,-1.19283 31.20146,9.13561 51.06827,17.57687 36.68625,15.58777 75.81821,42.481727 95.28708,65.488817 6.20374,7.33118 8.52293,11.03761 7.25838,11.60101 -1.02204,0.45533 -5.54218,3.16527 -10.045,6.02144 l -8.18768,5.19342 -14.20533,-14.20658 c -20.85461,-20.8546 -44.21197,-36.305337 -76.57202,-50.652997 -15.25021,-6.76154 -20.3111,-7.14109 -25.5354,-1.91682 -4.96035,4.96039 -7.71521,28.417307 -7.06468,60.148507 0.82968,40.47259 9.88512,71.77325 27.632,95.50865 l 8.45741,11.31108 -3.5767,7.97752 c -6.67069,14.88246 -5.15318,14.54564 -16.12216,3.57666 -12.9623,-12.96234 -22.14311,-28.61108 -29.44881,-50.19594 -13.63116,-40.27364 -14.99599,-89.88751 -3.99192,-145.160167 2.35503,-11.82917 4.62611,-21.85101 5.04656,-22.27147 z m 492.54235,0 c 0.42047,0.42046 2.69153,10.4423 5.04656,22.27147 11.00407,55.272657 9.63924,104.886527 -3.99192,145.160167 -7.30569,21.58486 -16.48652,37.2336 -29.44882,50.19594 -10.96898,10.96898 -9.45144,11.3058 -16.12215,-3.57666 l -3.57665,-7.97752 8.45736,-11.31108 c 17.74687,-23.7354 26.80234,-55.03606 27.632,-95.50865 0.65052,-31.7312 -2.10433,-55.188117 -7.06469,-60.148507 -5.22429,-5.22427 -10.28518,-4.84472 -25.5354,1.91682 -32.36,14.34766 -55.71737,29.798397 -76.57197,50.652997 l -14.20534,14.20658 -8.18766,-5.19342 c -4.50281,-2.85617 -9.02299,-5.56611 -10.04502,-6.02144 -1.26454,-0.5634 1.05464,-4.26983 7.25838,-11.60101 19.46887,-23.00709 58.60083,-49.901047 95.28707,-65.488817 19.86678,-8.44126 49.87546,-18.7697 51.06825,-17.57687 z M 294.22414,111.24235 c 4.79274,1.13139 35.1455,19.2046 45.82801,27.28763 5.82847,4.41016 14.54332,12.29258 19.36709,17.51611 l 8.77135,9.49681 -16.5235,17.21731 c -9.08766,9.46981 -19.60304,21.46956 -23.36661,26.66474 -3.76356,5.19521 -7.98761,11.17961 -9.38792,13.29882 -2.30166,3.48322 -2.86165,3.53542 -5.82647,0.54821 -9.89244,-9.96848 -19.17226,-38.23993 -21.56373,-65.6914 -2.21502,-25.42699 -0.9455,-47.19925 2.70178,-46.33823 z m 411.55177,0 c 3.6473,-0.86102 4.91682,20.91124 2.70181,46.33823 -2.39147,27.45147 -11.67128,55.72292 -21.56374,65.6914 -2.96482,2.98721 -3.52482,2.93501 -5.82645,-0.54821 -1.40034,-2.11921 -5.62435,-8.10361 -9.38794,-13.29882 -3.76354,-5.19518 -14.27895,-17.19493 -23.3666,-26.66474 l -16.5235,-17.21731 8.77136,-9.49681 c 4.82377,-5.22353 13.5386,-13.10595 19.3671,-17.51611 10.68252,-8.08303 41.03522,-26.15624 45.82796,-27.28763 z m -205.77587,29.15131 c 36.25134,0.0419 72.4447,12.73685 105.6195,37.98087 16.50203,12.55708 43.52592,41.8366 55.17285,59.77757 18.944,29.18147 33.68667,66.54957 37.99479,96.31009 5.96113,41.17991 -1.57112,78.60163 -22.41326,111.36239 -7.43462,11.68619 -32.06953,35.71049 -45.16453,44.04534 -37.5409,23.89447 -81.47852,35.67949 -131.20935,35.59815 -49.73084,0.0814 -93.66845,-11.70368 -131.20934,-35.59815 -13.095,-8.33485 -37.72991,-32.35915 -45.16456,-44.04534 -20.84213,-32.76076 -28.3744,-70.18248 -22.41325,-111.36239 4.30811,-29.76052 19.0508,-67.12862 37.99479,-96.31009 11.64695,-17.94097 38.67085,-47.22049 55.17287,-59.77757 33.1748,-25.24402 69.36817,-37.93898 105.61949,-37.98087 z M 398.40033,281.26692 c -2.70795,10e-4 -5.37946,0.19435 -7.36094,0.57605 -6.12952,1.18077 -8.53396,2.71635 -16.10191,10.28431 -7.78883,7.78888 -9.10347,9.91144 -10.5565,17.05021 -2.56321,12.59343 2.0897,19.70286 12.65058,19.32911 6.12057,-0.21659 10.04978,-4.24862 11.93907,-12.2518 1.85716,-7.86693 7.00235,-11.43302 13.1684,-9.12712 3.70197,1.38444 4.66087,2.71101 6.26706,8.67261 1.04297,3.87121 3.1415,8.28429 4.66294,9.80572 2.76664,2.76662 10.73369,3.34846 15.06119,1.1002 4.40849,-2.29027 6.58535,-10.05611 5.00098,-17.8402 -1.38294,-6.79459 -2.78591,-9.03269 -10.50585,-16.75265 -7.82145,-7.82144 -9.85663,-9.07846 -16.64631,-10.28431 -2.12716,-0.37752 -4.87074,-0.56476 -7.57871,-0.56213 z m 203.19942,0 c -2.70796,-0.001 -5.45155,0.18469 -7.57869,0.56213 -6.78969,1.20585 -8.82487,2.46287 -16.64631,10.28431 -7.71997,7.71996 -9.12292,9.95806 -10.50588,16.75265 -1.58436,7.78409 0.59249,15.54993 5.001,17.8402 4.32751,2.24826 12.29457,1.66642 15.06117,-1.1002 1.52147,-1.52143 3.62,-5.93451 4.66296,-9.80572 1.60619,-5.9616 2.56511,-7.28817 6.26704,-8.67261 6.16607,-2.3059 11.31125,1.26019 13.16842,9.12712 1.88929,8.00318 5.8185,12.03521 11.93907,12.2518 10.56087,0.37375 15.21379,-6.73568 12.65056,-19.32911 -1.453,-7.13877 -2.76766,-9.26133 -10.55649,-17.05021 -7.56794,-7.56796 -9.9724,-9.10354 -16.10189,-10.28431 -1.9815,-0.38177 -4.65299,-0.5736 -7.36096,-0.57605 z m -148.97231,42.19815 c -0.83629,-0.0688 -1.67475,-0.0503 -2.5005,0.0633 -2.20198,0.30262 -4.31727,1.27615 -6.07713,3.03601 -11.95995,11.95997 4.29744,40.90229 25.09353,44.67334 8.33188,1.51084 19.92108,-0.65638 26.94834,-5.04023 1.36565,-0.85193 2.63687,-1.27524 3.90836,-1.27748 1.27151,0.001 2.5427,0.42555 3.90837,1.27748 7.02726,4.38385 18.61646,6.55107 26.94833,5.04023 20.79609,-3.77105 37.05349,-32.71337 25.09354,-44.67334 -1.75986,-1.75986 -3.87514,-2.73339 -6.07715,-3.03601 -6.60597,-0.90796 -13.99973,4.21769 -14.97888,12.23023 -0.76925,6.29494 -3.84452,9.69639 -9.69687,10.72744 -5.74715,1.01247 -10.78243,-4.04633 -13.32539,-13.38872 -1.81665,-6.67411 -2.31636,-7.29541 -6.92035,-8.60803 -1.36186,-0.38836 -3.15639,-0.58157 -4.9516,-0.58239 -1.79518,8.2e-4 -3.58972,0.19412 -4.9516,0.58239 -4.604,1.31262 -5.1037,1.93392 -6.92036,8.60803 -2.54293,9.34239 -7.57823,14.40119 -13.32539,13.38872 -5.85235,-1.03105 -8.9276,-4.4325 -9.69685,-10.72744 -0.85677,-7.01097 -6.62431,-11.81118 -12.4784,-12.29357 z m -278.66617,16.77038 c 12.94004,0.7208 17.36238,7.49602 21.77388,25.89752 5.1557,21.50584 12.76699,42.18604 21.4156,58.18483 6.29725,11.64903 9.58036,15.85742 22.94503,29.41209 11.61129,11.77647 18.05482,17.22271 25.22015,21.31814 11.44355,6.54068 30.94009,13.74942 43.42881,16.05759 4.94308,0.91359 8.96407,1.99937 8.93467,2.41312 -0.0296,0.41377 -2.56547,8.18837 -5.63528,17.27681 -6.68948,19.80471 -7.09221,26.26249 -1.95482,31.39985 3.83643,3.8365 13.78486,4.60353 17.0717,1.31672 0.84812,-0.84815 4.35396,-10.11098 7.79015,-20.58506 3.43623,-10.47403 6.56266,-19.36018 6.94819,-19.74692 0.38558,-0.3868 5.12188,2.46728 10.52486,6.34302 23.69326,16.99615 62.45587,32.04336 98.46364,38.22141 11.73267,2.01308 30.74813,3.0666 49.11219,3.21079 18.36408,-0.14426 37.37951,-1.19771 49.11218,-3.21079 36.00777,-6.17805 74.7704,-21.22526 98.46366,-38.22141 5.40298,-3.87574 10.13927,-6.72982 10.52487,-6.34302 0.38552,0.38674 3.51194,9.27289 6.94818,19.74692 3.4362,10.47408 6.94203,19.73691 7.79014,20.58506 3.28682,3.28681 13.23526,2.51978 17.07169,-1.31672 5.13738,-5.13736 4.73465,-11.59514 -1.95482,-31.39985 -3.06982,-9.08844 -5.60564,-16.86304 -5.63528,-17.27681 -0.0293,-0.41375 3.99158,-1.49953 8.93466,-2.41312 12.48872,-2.30817 31.98525,-9.51691 43.4288,-16.05759 7.16535,-4.09543 13.60886,-9.54167 25.22015,-21.31814 13.36467,-13.55467 16.64778,-17.76306 22.94503,-29.41209 8.6486,-15.99879 16.2599,-36.67899 21.4156,-58.18483 5.88202,-24.53531 11.78319,-28.40076 37.8682,-24.80615 38.24984,5.27092 87.05834,28.34471 113.36394,53.59154 11.8304,11.35409 11.9536,11.09318 -9.0929,19.17084 -34.7533,13.33844 -55.7544,37.62244 -60.7587,70.25434 -1.5231,9.93146 0.1604,29.9294 3.2057,38.07203 2.5512,6.82182 0.389,8.79169 -11.1313,10.13996 -13.15363,1.53943 -27.47859,6.13223 -39.18114,12.56321 -6.74367,3.7059 -11.45488,7.74928 -19.96974,17.14009 -12.53505,13.82457 -17.21562,22.78549 -21.979,42.07285 -1.63632,6.62548 -3.77401,12.4019 -4.7503,12.83671 -0.97635,0.43481 -5.85013,-0.59626 -10.83124,-2.29162 -22.90575,-7.79602 -49.74139,-7.65074 -74.1209,0.40263 l -13.48493,4.45531 1.94722,-9.01192 c 2.79311,-12.92477 2.8968,-22.7569 0.28487,-27.11925 -4.18293,-6.98617 -17.81572,-6.67974 -21.18516,0.47603 -0.72053,1.53025 -2.10508,8.14682 -3.07656,14.70418 -12.63722,85.2986 -84.72122,148.1023 -170.43476,148.49122 -0.31858,10e-4 -0.62035,-0.0316 -0.93816,-0.0316 -0.31779,8e-5 -0.6196,0.0331 -0.93815,0.0316 -85.71354,-0.38898 -157.79755,-63.19262 -170.43476,-148.49122 -0.97148,-6.55736 -2.35604,-13.17393 -3.07656,-14.70418 -3.36947,-7.15577 -17.00224,-7.4622 -21.18519,-0.47603 -2.61189,4.36235 -2.50824,14.19448 0.28487,27.11925 l 1.94723,9.01192 -13.48495,-4.45531 c -24.37951,-8.05337 -51.21515,-8.19865 -74.12089,-0.40263 -4.98112,1.69536 -9.85492,2.72643 -10.83125,2.29162 -0.97629,-0.43481 -3.11401,-6.21123 -4.75029,-12.83671 -4.76339,-19.28736 -9.44396,-28.24828 -21.97901,-42.07285 -8.51487,-9.39081 -13.22605,-13.43419 -19.96973,-17.14009 -11.70254,-6.43098 -26.02753,-11.02378 -39.18113,-12.56321 -11.52037,-1.34827 -13.68248,-3.31814 -11.13129,-10.13996 3.04522,-8.14263 4.72879,-28.14057 3.20571,-38.07203 -5.00438,-32.6319 -26.005399,-56.9159 -60.758789,-70.25434 -21.04645,-8.07766 -20.92324,-7.81675 -9.09293,-19.17084 26.3057,-25.24683 75.114139,-48.32062 113.364039,-53.59154 6.52124,-0.89864 11.78096,-1.33162 16.0943,-1.09137 z"
       sodipodi:nodetypes="scscscccccsssssssssssssssssscssssssssssssssssssccccsscsssssscsssssssssccssscccssssssssccssssccssssssscccsscsssscsscccsscssssscsssssccsssssssssssccccssssssssssscscssscsssssssscsssssssssssscssssssscssssssscsssssssssssssssscccssssscssscccssssssssssss" /></g></svg>
