<?xml version="1.0" encoding="UTF-8" standalone="no"?>
<!-- Created with Inkscape (http://www.inkscape.org/) -->

<svg
   width="1000mm"
   height="500mm"
   viewBox="0 0 1000 500"
   version="1.1"
   id="svg1"
   style="background: #9c0510;"
   xml:space="preserve"
   inkscape:version="1.4 (e7c3feb, 2024-10-09)"
   sodipodi:docname="logo-pure.svg"
   xmlns:inkscape="http://www.inkscape.org/namespaces/inkscape"
   xmlns:sodipodi="http://sodipodi.sourceforge.net/DTD/sodipodi-0.dtd"
   xmlns="http://www.w3.org/2000/svg"
   xmlns:svg="http://www.w3.org/2000/svg"><sodipodi:namedview
     id="namedview1"
     pagecolor="#9c0510"
     bordercolor="#000000"
     borderopacity="0.25"
     inkscape:showpageshadow="2"
     inkscape:pageopacity="0.0"
     inkscape:pagecheckerboard="0"
     inkscape:deskcolor="#d1d1d1"
     inkscape:document-units="mm"
     inkscape:zoom="0.1781706"
     inkscape:cx="561.25984"
     inkscape:cy="1880.2205"
     inkscape:window-width="1920"
     inkscape:window-height="1011"
     inkscape:window-x="0"
     inkscape:window-y="0"
     inkscape:window-maximized="1"
     inkscape:current-layer="layer1" /><defs
     id="defs1" /><g
     inkscape:label="Layer 1"
     inkscape:groupmode="layer"
     id="layer1"><path
       id="path1"
       style="stroke-width:1.05003"
       d="m 63.148841,142.40343 c -13.505727,0.18231 -26.699732,2.37374 -38.748804,7.03327 -1.71154,0.67183 -10.900108,3.97962 -9.18856,6.25815 19.026506,3.69611 34.094065,21.48342 32.057012,41.22397 8.23222,-2.91912 18.259662,2.89828 25.074355,7.54998 7.308187,4.99806 14.301801,12.56962 18.617417,20.3084 2.75106,4.94556 3.90646,9.44009 6.101009,14.48019 18.62752,-19.121 53.64681,-13.38866 70.86725,4.72435 2.26805,2.38361 8.36753,13.16658 9.29155,13.60766 1.29276,0.60936 6.06084,-13.32551 22.77991,-11.71972 16.71922,-1.60579 21.4871,12.32916 22.77992,11.71972 0.92405,-0.44142 7.02351,-11.22405 9.29156,-13.60766 17.22046,-18.11301 52.23974,-23.84535 70.86726,-4.72435 2.19453,-5.0401 3.34994,-9.53463 6.10099,-14.48019 4.31562,-7.73878 11.30926,-15.31034 18.61744,-20.3084 6.81466,-4.6517 16.84214,-10.4691 25.07434,-7.54998 -2.03704,-19.74055 13.03054,-37.52786 32.05704,-41.22397 1.71153,-2.27853 -7.47704,-5.58616 -9.18861,-6.25815 -12.04906,-4.65953 -25.24305,-6.85114 -38.74878,-7.03327 -29.7126,-0.40089 -60.9324,8.92712 -84.77656,23.11958 -12.95735,7.71767 -22.46988,20.82232 -39.02883,17.66172 l 0.0211,-0.0337 c -1.94258,-4.71456 1.99484,-10.42773 2.17335,-13.10531 0.1153,-1.69052 -2.39505,-12.0542 -3.88611,-12.06477 -4.50576,5.66551 -3.34705,13.5394 -11.35471,12.87417 -8.00767,0.66507 -6.84897,-7.20866 -11.35473,-12.87417 -1.49106,0.009 -4.00158,10.37425 -3.88608,12.06477 0.17868,2.67758 4.11594,8.39075 2.17339,13.1054 l 0.0211,0.0337 c -16.5588,3.16051 -26.07137,-9.94405 -39.02872,-17.66172 -23.84415,-14.19246 -55.063929,-23.52031 -84.776557,-23.11958 z"
       sodipodi:nodetypes="scccccccccccccccccscccccccccccs" /><path
       id="path1-3"
       style="stroke-width:0.992942"
       d="m 800.13579,81.64007 c -0.0466,-3e-4 -0.0898,0.004 -0.13592,0.003 v 0.004 c -0.0466,2.6e-4 -0.0893,-0.004 -0.13593,-0.004 -39.33412,0.32785 -75.20039,27.2263 -71.63573,64.68997 l -9.16523,-7.58672 c -10.31665,17.38639 -3.88148,52.90396 8.58986,68.25483 1.27098,1.55893 4.16025,2.21444 4.74609,3.92229 0.91351,2.67099 -0.23894,7.13915 0.17824,10.11798 -19.25311,-1.51918 -39.53848,-12.5702 -48.17707,-30.29422 -1.55893,-0.0496 -3.2667,8.74742 -3.48516,10.56447 -2.0256,17.06868 -0.73445,44.66212 4.33947,61.10525 7.13924,23.13552 37.10365,55.9431 61.90911,55.9431 H 800 v -0.004 h 52.83646 c 24.80547,0 54.76988,-32.80758 61.90912,-55.9431 5.07392,-16.44313 6.36507,-44.03657 4.33947,-61.10525 -0.21842,-1.81705 -1.92623,-10.61413 -3.48516,-10.56447 -8.63859,17.72402 -28.92396,28.775 -48.17711,30.29422 0.41717,-2.97883 -0.73535,-7.44695 0.17825,-10.11798 0.58588,-1.70785 3.47514,-2.36336 4.74612,-3.92229 12.47134,-15.35087 18.90651,-50.86845 8.58986,-68.25484 l -9.16522,7.58795 C 875.33644,108.86633 839.47017,81.96787 800.13605,81.64 Z" /><path
       id="path1-1"
       style="vector-effect:non-scaling-stroke;fill:#ffffff;stroke:#ffffff;stroke-width:2.32973;stroke-dasharray:none;stroke-opacity:1;-inkscape-stroke:hairline"
       d="M 439.93168,131.052 410,158.18517 l 29.93168,24.90367 v -18.29662 h 12.49955 c 5.85781,-4.3e-4 11.41501,2.58762 15.17963,7.07559 l 23.60683,28.13433 -23.60683,28.12976 c -3.76462,4.48797 -9.32182,7.07603 -15.17963,7.07558 H 439.93168 V 216.91087 L 410,241.81454 l 29.93168,27.13318 v -20.53079 h 9.36442 v 0.0265 h 2.82571 0.61461 c 9.76199,-2.7e-4 19.02578,-4.32419 25.29947,-11.80342 L 500,210.46697 l 21.96411,26.17304 c 6.27386,7.47923 15.53739,11.80315 25.29947,11.80342 h 0.61461 2.82571 v -0.0265 h 9.36451 v 20.53079 L 590,241.81454 560.06841,216.91087 v 18.29661 h -12.49964 c -5.85781,4.5e-4 -11.41501,-2.58761 -15.17963,-7.07558 l -23.60674,-28.12976 23.60674,-28.13433 c 3.76471,-4.48797 9.32182,-7.07602 15.17972,-7.07559 h 12.49955 v 18.29662 L 590,158.18517 560.06841,131.052 v 20.53079 h -9.36443 v -0.0265 h -2.82571 -0.6146 c -9.76217,8e-5 -19.0257,4.32419 -25.29947,11.80341 L 500,189.53277 478.03589,163.35965 c -6.27369,-7.47922 -15.53748,-11.80324 -25.29947,-11.80333 h -0.61461 -2.82571 v 0.0265 h -9.36442 z" /><text
       xml:space="preserve"
       style="font-style:normal;font-variant:normal;font-weight:normal;font-stretch:normal;font-size:125px;line-height:0;font-family:'Rubik Wet Paint';-inkscape-font-specification:'Rubik Wet Paint';text-align:start;writing-mode:lr-tb;direction:ltr;text-anchor:start;vector-effect:non-scaling-stroke;fill:#ffffff;stroke:#ffffff;stroke-width:0.264583;stroke-opacity:1;-inkscape-stroke:hairline"
       x="186.26289"
       y="438.88229"
       id="text1"><tspan
         sodipodi:role="line"
         id="tspan1"
         style="font-size:125px;fill:#ffffff;stroke-width:0.264583"
         x="186.26289"
         y="438.88229">TRAQULA</tspan></text></g></svg>
